<?xml version="1.0" standalone="no"?>
<!DOCTYPE svg PUBLIC "-//W3C//DTD SVG 20010904//EN"
 "http://www.w3.org/TR/2001/REC-SVG-20010904/DTD/svg10.dtd">
<svg version="1.0" xmlns="http://www.w3.org/2000/svg"
 width="2000.000000pt" height="1250.000000pt" viewBox="0 0 2000.000000 1250.000000"
 preserveAspectRatio="xMidYMid meet">

<g transform="translate(0.000000,1250.000000) scale(0.100000,-0.100000)"
fill="#000000" stroke="none">
<path d="M5514 10541 c-92 -31 -172 -77 -227 -129 -31 -31 -43 -36 -76 -33
-50 3 -93 -32 -117 -97 -25 -70 -31 -310 -10 -422 44 -234 153 -393 332 -482
87 -43 88 -43 198 -43 94 0 116 3 146 21 57 33 65 60 68 236 l4 156 -26 17
c-21 14 -40 16 -94 11 -88 -8 -140 5 -174 44 -25 27 -28 38 -27 98 0 37 6 83
13 102 14 38 66 80 100 80 11 0 52 12 91 27 132 50 217 165 202 274 -20 147
-199 210 -403 140z m-93 -470 c29 -29 29 -31 29 -140 0 -118 0 -119 -57 -131
-46 -11 -100 5 -119 36 -39 58 41 264 102 264 8 0 29 -13 45 -29z"/>
<path d="M5353 9934 c-7 -18 -5 -21 28 -29 40 -10 47 20 8 34 -24 8 -31 7 -36
-5z"/>
<path d="M8583 10560 c-84 -18 -179 -84 -224 -157 -20 -31 -99 -228 -99 -245
0 -5 265 -8 589 -8 l589 0 42 114 c51 141 57 180 33 225 -39 75 -22 72 -479
76 -225 2 -428 0 -451 -5z m213 -185 c11 -26 -23 -65 -56 -65 -24 0 -30 4 -30
22 0 46 72 81 86 43z m168 -1 c4 -9 -1 -28 -9 -41 -13 -19 -23 -23 -47 -21
-40 4 -44 17 -18 51 24 30 64 36 74 11z m166 -7 c0 -31 -32 -59 -62 -55 -51 7
-21 78 34 78 23 0 28 -4 28 -23z"/>
<path d="M10018 10356 c-49 -13 -110 -51 -146 -89 -48 -52 -113 -205 -317
-752 -119 -319 -233 -625 -254 -680 -21 -55 -43 -113 -48 -130 l-10 -30 -534
-5 -534 -5 -67 -32 c-80 -37 -155 -105 -190 -170 -14 -27 -88 -212 -163 -413
-75 -201 -157 -418 -183 -483 -25 -64 -43 -119 -40 -122 8 -9 491 -35 640 -35
122 0 148 -3 148 -14 0 -19 21 -25 103 -27 62 -2 69 0 84 22 50 74 133 129
198 129 51 0 89 -23 136 -82 43 -55 94 -147 85 -155 -2 -3 -44 14 -92 37 l-88
41 -34 -18 c-32 -17 -34 -17 -46 0 -21 27 -39 22 -31 -10 27 -109 20 -295 -14
-396 -11 -31 -17 -58 -14 -61 17 -17 32 -1 48 50 17 54 18 55 49 49 140 -28
260 -74 356 -136 56 -36 80 -42 80 -20 0 12 -115 85 -180 115 -66 30 -222 76
-257 76 -24 0 -25 2 -19 38 3 20 6 46 6 56 0 18 6 19 93 12 114 -8 204 -27
293 -61 111 -42 119 -47 122 -83 l3 -32 656 2 656 3 68 180 c37 99 122 326
189 505 67 179 160 425 206 547 92 242 99 284 65 358 -10 22 -34 54 -52 72
-68 64 -50 63 -815 63 -382 0 -694 2 -694 4 0 12 515 1376 528 1398 8 14 26
31 39 37 16 7 656 11 2109 11 2324 1 2119 8 2151 -68 17 -42 42 30 -302 -867
-124 -324 -285 -744 -357 -932 l-131 -343 -1238 0 c-1092 0 -1239 -2 -1239
-15 0 -13 162 -15 1363 -18 749 -1 1371 -5 1381 -7 17 -4 26 11 63 110 23 63
52 138 62 165 11 28 68 178 126 335 58 157 126 337 150 400 24 63 129 345 234
626 175 469 191 516 191 575 0 119 -76 224 -194 268 l-57 21 -2147 -1 c-1700
0 -2157 -3 -2194 -13z m-1378 -2000 c0 -3 -4 -16 -10 -30 l-10 -26 -155 0
c-85 0 -155 3 -155 8 0 4 3 17 6 30 6 22 9 22 165 22 88 0 159 -2 159 -4z
m400 -26 c0 -19 -7 -20 -155 -20 -85 0 -155 2 -155 4 0 2 3 11 6 20 5 14 28
16 155 16 142 0 149 -1 149 -20z m440 -135 c0 -2 -5 -16 -12 -30 l-11 -25
-472 0 c-259 0 -474 3 -478 6 -3 3 -1 17 5 30 l11 24 479 0 c263 0 478 -2 478
-5z m1020 0 c0 -2 -5 -16 -12 -30 l-11 -25 -444 0 c-243 0 -443 3 -443 8 0 4
3 17 6 30 l6 22 449 0 c247 0 449 -2 449 -5z m-1970 -163 c0 -5 -6 -16 -13
-25 -11 -16 -30 -17 -168 -15 l-156 3 8 23 c8 22 12 22 169 22 88 0 160 -4
160 -8z m278 -17 c-11 -24 -15 -25 -105 -25 -51 0 -93 4 -93 9 0 37 12 41 111
41 l99 0 -12 -25z m202 -129 c0 -3 -4 -16 -10 -30 l-10 -26 -319 0 -320 0 10
30 11 30 319 0 c175 0 319 -2 319 -4z m580 -3 c0 -4 -3 -18 -6 -30 -6 -22 -11
-23 -100 -23 -96 0 -104 3 -84 39 8 16 24 19 100 20 49 1 90 -2 90 -6z m546
-15 c-3 -13 -6 -26 -6 -30 0 -13 -450 -10 -450 3 0 6 5 19 10 30 10 18 23 19
232 19 l220 0 -6 -22z m-846 3 c0 -31 -14 -41 -56 -41 -24 0 -44 5 -44 10 0 6
6 10 14 10 8 0 17 3 19 8 3 4 -5 7 -18 7 -13 0 -22 -2 -19 -4 8 -9 -33 -30
-58 -31 -29 0 -33 6 -22 34 5 13 23 16 95 16 49 0 89 -4 89 -9z m-1017 -158
c-7 -2 -9 -11 -6 -19 4 -11 -11 -14 -85 -14 -85 0 -90 1 -85 20 5 17 15 20 92
22 83 3 109 0 84 -9z m544 -13 l-11 -30 -223 0 c-123 0 -223 2 -223 5 0 2 5
16 12 30 l11 25 223 0 222 0 -11 -30z m63 -142 c-1 -39 -45 -50 -102 -24 -48
21 -114 20 -158 -1 -31 -16 -61 -18 -247 -15 l-212 3 11 24 11 25 349 0 c272
0 348 -3 348 -12z m393 -9 c-3 -11 -11 -23 -17 -25 -7 -3 -80 -3 -163 -2
l-150 3 8 23 c8 22 12 22 168 22 156 0 159 0 154 -21z m528 -1 c-8 -23 -10
-23 -235 -26 l-226 -2 12 25 11 25 223 0 223 0 -8 -22z m-1321 -138 c0 -5 -19
-10 -42 -9 -37 1 -39 2 -18 9 36 12 60 12 60 0z m364 -142 c43 -10 106 -34
139 -51 33 -18 68 -36 78 -42 25 -13 24 -42 -2 -55 -15 -9 -35 -8 -82 4 -65
16 -257 37 -270 29 -10 -6 -14 11 -21 85 l-6 62 43 -6 c23 -3 78 -15 121 -26z
m1245 -38 l-11 -30 -499 0 -498 0 -48 30 -47 30 557 0 556 0 -10 -30z"/>
<path d="M8808 8323 c7 -3 16 -2 19 1 4 3 -2 6 -13 5 -11 0 -14 -3 -6 -6z"/>
<path d="M8888 8323 c29 -2 74 -2 100 0 26 2 2 3 -53 3 -55 0 -76 -1 -47 -3z"/>
<path d="M8116 7702 c-2 -4 4 -8 14 -9 11 -1 22 2 25 8 4 5 -3 9 -14 9 -11 0
-22 -4 -25 -8z"/>
<path d="M5652 10018 c4 -43 33 -46 33 -3 0 21 -5 31 -18 33 -15 3 -18 -2 -15
-30z"/>
<path d="M5750 9920 c0 -11 4 -20 9 -20 5 0 7 9 4 20 -3 11 -7 20 -9 20 -2 0
-4 -9 -4 -20z"/>
<path d="M8768 9895 c4 -13 12 -25 17 -25 16 -1 18 32 3 41 -22 14 -27 10 -20
-16z"/>
<path d="M8692 9898 c-14 -14 -16 -42 -3 -34 7 5 23 46 17 46 -1 0 -7 -5 -14
-12z"/>
<path d="M5781 9863 c-1 -18 1 -33 3 -33 2 0 11 -3 20 -6 19 -7 21 10 3 28 -8
7 -16 20 -20 28 -3 8 -6 0 -6 -17z"/>
<path d="M8737 9843 c-4 -3 -7 -11 -7 -17 0 -14 50 -69 57 -63 2 3 -1 23 -7
46 -10 38 -27 51 -43 34z"/>
<path d="M8905 9841 c-6 -11 9 -23 19 -14 9 9 7 23 -3 23 -6 0 -12 -4 -16 -9z"/>
<path d="M8508 9833 c7 -3 16 -2 19 1 4 3 -2 6 -13 5 -11 0 -14 -3 -6 -6z"/>
<path d="M8679 9833 c-1 -5 -2 -12 -4 -18 -1 -5 -3 -18 -3 -28 -2 -14 -9 -18
-29 -15 -16 2 -28 9 -28 16 0 15 -4 16 -29 6 -13 -5 -23 -2 -31 9 -7 10 -14
17 -16 17 -9 0 -8 -44 1 -55 5 -7 -2 -16 -20 -27 -27 -15 -28 -15 -35 5 -6 20
-8 20 -12 4 -3 -11 4 -27 16 -38 22 -21 41 -25 41 -9 0 6 7 10 15 10 8 0 15 7
15 15 0 9 7 15 16 13 10 -2 19 2 21 9 3 7 -3 9 -16 6 -23 -6 -30 14 -8 23 16
6 62 -17 64 -31 3 -14 33 -19 33 -6 0 15 27 14 32 0 6 -18 68 -20 68 -2 0 11
-7 14 -23 11 -19 -4 -23 0 -22 21 0 16 -5 25 -13 23 -10 -2 -10 2 -3 17 6 10
7 21 4 25 -9 8 -33 8 -34 -1z"/>
<path d="M8928 9799 c-31 -16 -37 -16 -42 -4 -7 20 -26 19 -26 -1 0 -17 23
-44 38 -44 5 0 12 8 15 19 2 10 17 21 33 24 35 6 41 2 24 -18 -19 -22 -6 -29
13 -7 16 18 16 20 0 34 -16 15 -21 15 -55 -3z"/>
<path d="M8820 9782 c0 -11 9 -22 20 -25 17 -4 18 -2 10 13 -15 28 -30 34 -30
12z"/>
<path d="M8420 9750 c0 -5 5 -10 10 -10 6 0 10 5 10 10 0 6 -4 10 -10 10 -5 0
-10 -4 -10 -10z"/>
<path d="M8800 9725 c0 -9 -9 -15 -22 -15 -21 0 -21 -1 -3 -20 19 -20 19 -20
32 11 16 38 16 39 3 39 -5 0 -10 -7 -10 -15z"/>
<path d="M8860 9731 c0 -6 5 -13 10 -16 6 -3 10 1 10 9 0 9 -4 16 -10 16 -5 0
-10 -4 -10 -9z"/>
<path d="M8543 9688 c-6 -7 -14 -20 -18 -28 -8 -13 -7 -13 11 0 40 31 47 40
31 40 -8 0 -19 -6 -24 -12z"/>
<path d="M8880 9671 c0 -12 5 -21 10 -21 6 0 10 6 10 14 0 8 -4 18 -10 21 -5
3 -10 -3 -10 -14z"/>
<path d="M8462 9655 c-12 -14 -22 -30 -22 -35 0 -14 18 -12 23 3 3 9 7 9 19
-1 13 -10 17 -10 22 3 5 14 -8 55 -18 55 -1 0 -12 -11 -24 -25z"/>
<path d="M8825 9670 c-3 -5 -1 -10 4 -10 6 0 11 5 11 10 0 6 -2 10 -4 10 -3 0
-8 -4 -11 -10z"/>
<path d="M8415 9650 c-3 -5 -2 -10 4 -10 5 0 13 5 16 10 3 6 2 10 -4 10 -5 0
-13 -4 -16 -10z"/>
<path d="M8846 9639 c12 -19 -19 -29 -33 -11 -11 15 -13 13 -11 -13 2 -29 4
-30 54 -33 37 -1 53 2 57 12 3 8 19 17 36 21 46 10 48 25 2 25 -22 0 -41 -5
-44 -12 -3 -10 -9 -8 -24 5 -22 19 -48 23 -37 6z"/>
<path d="M8356 9615 c4 -8 18 -15 33 -15 24 0 26 -4 26 -38 0 -28 -4 -39 -15
-38 -11 1 -14 -8 -13 -28 3 -38 12 -45 28 -21 8 11 21 27 30 36 24 24 7 78
-30 100 -38 22 -66 24 -59 4z"/>
<path d="M8294 9593 c-3 -10 -10 -28 -16 -40 -6 -11 -8 -27 -6 -34 6 -18 25
17 33 60 6 33 -2 43 -11 14z"/>
<path d="M8320 9565 c0 -7 -3 -21 -6 -30 -5 -13 -3 -14 18 -5 28 13 32 45 6
47 -10 1 -18 -4 -18 -12z"/>
<path d="M8899 9565 c-3 -2 -16 -7 -30 -9 -13 -2 -25 -5 -27 -5 -2 -1 4 -8 12
-17 9 -8 20 -13 25 -9 5 3 12 1 16 -5 3 -5 13 -10 21 -10 8 0 12 5 9 10 -3 6
3 10 14 10 13 0 19 6 18 19 -1 14 -5 17 -13 10 -8 -7 -14 -6 -19 1 -7 11 -19
13 -26 5z"/>
<path d="M8790 9521 c0 -5 -13 -14 -30 -19 -21 -8 -28 -16 -24 -26 7 -18 24
-22 24 -5 0 5 4 8 8 5 4 -2 9 -22 10 -42 2 -21 5 -40 7 -43 11 -11 34 23 33
50 -1 17 4 35 10 41 17 17 15 23 -13 36 -14 6 -25 8 -25 3z"/>
<path d="M13033 9490 c2 -10 18 -15 48 -16 44 -1 44 -1 4 3 -22 3 -44 10 -48
16 -6 8 -7 7 -4 -3z"/>
<path d="M7151 9427 c-17 -17 -13 -24 16 -30 38 -7 55 1 44 22 -11 20 -44 24
-60 8z"/>
<path d="M7230 9431 c0 -6 5 -13 10 -16 6 -3 10 1 10 9 0 9 -4 16 -10 16 -5 0
-10 -4 -10 -9z"/>
<path d="M8729 9419 c-11 -11 -17 -24 -13 -27 3 -4 9 -2 11 5 2 7 10 10 18 7
7 -3 16 -1 20 5 3 6 1 11 -5 11 -6 0 -8 5 -5 10 11 17 -4 11 -26 -11z"/>
<path d="M8495 9421 c-11 -5 -24 -6 -30 -3 -5 3 -5 -1 1 -7 14 -15 56 -11 62
7 4 14 -4 14 -33 3z"/>
<path d="M8650 9420 c19 -13 30 -13 30 0 0 6 -10 10 -22 10 -19 0 -20 -2 -8
-10z"/>
<path d="M8342 9403 c14 -17 0 -35 -22 -28 -14 5 -18 1 -17 -13 1 -13 6 -18
17 -14 58 21 82 67 36 67 -18 0 -22 -3 -14 -12z"/>
<path d="M8821 9377 c-13 -21 -12 -21 5 -5 10 10 16 20 13 22 -3 3 -11 -5 -18
-17z"/>
<path d="M8532 9378 c-6 -6 -24 -11 -41 -10 -16 0 -35 -6 -41 -13 -9 -11 -7
-15 13 -20 29 -8 40 -29 32 -56 -5 -15 -1 -19 15 -19 12 0 30 -5 41 -10 15 -9
21 -7 25 5 9 22 -3 30 -21 15 -11 -9 -15 -9 -15 -1 0 7 -5 9 -10 6 -6 -4 -5 5
2 20 9 21 17 25 35 20 13 -3 23 -1 23 5 0 10 -13 14 -42 11 -19 -2 -23 7 -10
24 12 17 79 17 86 0 8 -21 23 -19 29 5 6 22 -8 37 -18 20 -4 -6 -11 -7 -17 -4
-20 13 -74 14 -86 2z"/>
<path d="M7120 9369 c0 -5 5 -7 10 -4 6 3 10 8 10 11 0 2 -4 4 -10 4 -5 0 -10
-5 -10 -11z"/>
<path d="M7232 9362 c-9 -12 -14 -14 -18 -4 -3 6 -15 12 -26 12 -20 0 -21 -1
-3 -20 21 -24 34 -25 61 -6 13 10 16 18 9 25 -7 7 -14 5 -23 -7z"/>
<path d="M8385 9360 c3 -5 10 -10 16 -10 5 0 9 5 9 10 0 6 -7 10 -16 10 -8 0
-12 -4 -9 -10z"/>
<path d="M8726 9363 c-2 -3 -2 -12 1 -20 5 -12 1 -14 -18 -8 l-24 7 22 -21
c23 -22 43 -28 43 -12 0 5 11 12 25 15 14 4 25 10 25 16 0 13 -63 33 -74 23z"/>
<path d="M7145 9340 c3 -5 8 -10 11 -10 2 0 4 5 4 10 0 6 -5 10 -11 10 -5 0
-7 -4 -4 -10z"/>
<path d="M8324 9329 c-3 -5 6 -9 20 -9 31 0 34 6 6 13 -11 3 -23 1 -26 -4z"/>
<path d="M14813 9268 c-2 -5 11 -8 29 -8 l33 -1 -25 -14 c-33 -19 -50 -19 -50
0 0 20 -19 19 -27 -1 -7 -20 11 -32 41 -27 13 3 30 -2 39 -11 20 -20 25 -20
29 1 4 21 56 24 76 6 19 -18 88 -16 116 2 17 12 44 15 97 13 41 -1 82 1 91 5
13 7 15 5 11 -11 -6 -24 2 -30 58 -37 46 -5 44 -1 -3 9 -39 9 -35 21 7 24 19
2 35 -2 35 -8 0 -5 19 -10 41 -10 35 0 40 -2 29 -15 -9 -11 -17 -12 -31 -4
-16 8 -19 6 -19 -11 0 -12 4 -19 9 -16 5 3 12 -1 15 -10 3 -8 11 -12 17 -8 8
4 9 3 5 -5 -4 -6 -2 -18 4 -26 9 -11 9 -15 1 -15 -6 0 -17 11 -23 25 -8 18
-14 22 -19 13 -5 -7 0 -20 12 -31 20 -19 22 -29 13 -64 -4 -13 -11 -20 -16
-17 -11 7 -2 -31 14 -56 7 -11 7 -9 3 7 -3 12 -1 25 6 29 8 4 9 3 5 -4 -4 -7
-3 -12 3 -12 5 0 12 6 15 13 3 6 4 -13 1 -43 l-4 -55 20 50 c11 27 18 61 16
74 -6 29 2 53 14 45 5 -3 5 6 0 19 -6 14 -7 29 -3 33 4 5 -1 3 -10 -4 -25 -20
-18 12 10 41 24 25 21 60 -4 50 -8 -3 -14 0 -14 7 0 7 -8 10 -20 7 -14 -4 -25
1 -33 14 -7 11 -24 19 -42 20 l-30 1 30 8 c35 9 43 9 -323 12 -134 2 -246 0
-249 -4z m395 -15 c-21 -2 -55 -2 -75 0 -21 2 -4 4 37 4 41 0 58 -2 38 -4z
m69 1 c-3 -3 -12 -4 -19 -1 -8 3 -5 6 6 6 11 1 17 -2 13 -5z m-220 -40 c-3 -3
-12 -4 -19 -1 -8 3 -5 6 6 6 11 1 17 -2 13 -5z m393 -164 c0 -16 -4 -30 -8
-30 -5 0 -7 14 -4 30 2 17 6 30 8 30 2 0 4 -13 4 -30z"/>
<path d="M15436 9228 c3 -5 10 -6 15 -3 13 9 11 12 -6 12 -8 0 -12 -4 -9 -9z"/>
<path d="M12768 9203 c6 -2 18 -2 25 0 6 3 1 5 -13 5 -14 0 -19 -2 -12 -5z"/>
<path d="M12838 9203 c7 -3 16 -2 19 1 4 3 -2 6 -13 5 -11 0 -14 -3 -6 -6z"/>
<path d="M15103 9203 c9 -2 25 -2 35 0 9 3 1 5 -18 5 -19 0 -27 -2 -17 -5z"/>
<path d="M14816 9191 c-3 -5 0 -12 6 -15 7 -3 1 -4 -14 -1 -17 3 -28 1 -28 -5
0 -7 -9 -9 -22 -4 -21 6 -21 6 -4 -11 12 -13 20 -15 25 -7 4 6 31 13 60 15 45
2 55 0 59 -15 5 -19 22 -25 22 -7 0 27 -20 46 -45 42 -14 -3 -31 0 -39 6 -9 7
-17 8 -20 2z"/>
<path d="M14910 9195 c0 -2 9 -9 20 -15 16 -9 20 -8 20 5 0 8 -9 15 -20 15
-11 0 -20 -2 -20 -5z"/>
<path d="M15204 9174 c3 -9 6 -20 6 -26 0 -5 7 -2 16 6 17 18 11 36 -13 36
-10 0 -13 -6 -9 -16z"/>
<path d="M14640 9165 c0 -8 5 -15 10 -15 6 0 10 7 10 15 0 8 -4 15 -10 15 -5
0 -10 -7 -10 -15z"/>
<path d="M15275 9170 c3 -5 18 -10 32 -10 32 0 28 5 -10 14 -19 4 -26 3 -22
-4z"/>
<path d="M14717 9154 c-4 -4 -7 -18 -7 -31 0 -12 -4 -23 -10 -23 -5 0 -7 7 -4
15 4 8 1 15 -6 15 -8 0 -10 -8 -7 -21 7 -25 -2 -51 -14 -43 -5 3 -9 -7 -9 -23
l1 -28 16 30 c9 17 27 45 41 63 16 21 22 36 15 43 -5 5 -12 6 -16 3z"/>
<path d="M14936 9151 c-4 -7 -5 -15 -2 -18 9 -9 19 4 14 18 -4 11 -6 11 -12 0z"/>
<path d="M15125 9140 c-3 -5 1 -10 10 -10 9 0 13 5 10 10 -3 6 -8 10 -10 10
-2 0 -7 -4 -10 -10z"/>
<path d="M15190 9141 c0 -6 4 -13 10 -16 6 -3 7 1 4 9 -7 18 -14 21 -14 7z"/>
<path d="M15525 9130 c-3 -5 -1 -10 4 -10 6 0 11 5 11 10 0 6 -2 10 -4 10 -3
0 -8 -4 -11 -10z"/>
<path d="M4506 9115 c-180 -46 -338 -194 -395 -372 l-22 -69 68 -70 c108 -111
161 -217 188 -374 13 -73 24 -136 146 -765 33 -170 75 -392 94 -492 19 -99 47
-243 61 -318 l27 -137 126 6 c69 3 369 8 666 11 297 3 770 10 1050 15 281 5
672 8 870 7 l360 -2 78 -28 c127 -44 208 -93 298 -178 210 -200 286 -511 193
-789 -27 -79 -52 -124 -239 -425 -65 -104 -159 -257 -210 -340 -51 -82 -123
-200 -161 -261 -38 -61 -132 -213 -209 -338 -77 -124 -152 -245 -167 -268 -15
-24 -31 -50 -35 -58 -6 -14 -225 -368 -279 -452 l-24 -38 -238 -1 c-452 -1
-1076 2 -1080 6 -2 2 37 77 88 167 121 214 168 296 222 393 25 44 58 103 73
130 16 28 51 91 78 140 27 50 52 95 57 100 4 6 21 35 37 65 16 30 123 222 238
425 188 335 235 419 318 566 24 42 30 47 73 53 26 3 114 6 195 6 143 0 149 1
149 20 0 20 -4 20 -222 15 -227 -5 -754 -14 -953 -16 -60 0 -103 -3 -95 -6 21
-7 81 -32 108 -46 13 -6 19 -13 14 -15 -6 -2 -22 4 -36 13 -15 10 -33 14 -43
11 -15 -6 -15 -8 -3 -16 8 -5 23 -7 34 -4 10 4 16 2 13 -3 -3 -5 9 -10 26 -11
38 -3 71 -32 97 -87 71 -145 26 -304 -110 -390 -32 -20 -43 -23 -72 -15 -45
13 -49 11 -13 -6 24 -12 25 -14 5 -8 -44 12 -996 17 -985 5 7 -7 168 -12 490
-14 264 -1 14 -2 -556 -2 -945 0 -1034 -1 -1020 -16 11 -11 157 -40 501 -98
267 -45 497 -85 513 -88 l27 -5 0 93 0 94 404 -404 403 -403 -125 -217 c-68
-119 -148 -257 -178 -307 -29 -49 -56 -98 -60 -107 -6 -16 -44 -17 -473 -17
l-468 0 -6 182 c-4 99 -7 252 -7 339 l0 158 116 208 c64 114 122 218 130 231
13 20 13 23 0 28 -8 3 -19 3 -24 0 -5 -3 -44 -70 -87 -148 -43 -79 -91 -165
-107 -193 l-28 -50 0 198 c0 184 -1 198 -17 195 -16 -3 -18 -25 -23 -238 l-5
-235 -134 -245 c-74 -135 -162 -294 -196 -355 l-62 -110 79 -3 c73 -3 79 -4
73 -22 -8 -25 -6 -26 138 -40 l117 -12 0 -84 0 -84 -189 0 -190 0 -14 -27 c-8
-16 -69 -124 -136 -242 -66 -118 -121 -218 -121 -222 0 -18 -31 -21 -185 -20
-177 2 -228 -6 -315 -50 -106 -53 -199 -177 -216 -287 -6 -38 -5 -42 15 -42
14 0 21 6 21 20 0 75 80 200 164 256 80 53 136 64 324 64 l162 0 -26 -42 c-27
-42 -74 -128 -74 -134 0 -2 278 -4 618 -4 l617 -1 -85 -79 -85 -79 237 -1 236
0 46 80 47 80 253 0 254 0 20 -47 c11 -27 23 -63 27 -80 4 -19 13 -33 21 -33
19 0 17 24 -6 90 -11 30 -19 58 -20 63 0 4 338 7 750 7 432 0 750 4 750 9 0 5
-53 30 -118 55 -137 54 -200 93 -266 167 -56 62 -90 126 -111 206 -18 67 -21
203 -5 253 5 19 10 36 10 37 0 2 -260 3 -577 3 l-578 -1 -90 -161 c-49 -89
-109 -196 -133 -238 -24 -41 -45 -83 -49 -92 -4 -14 -16 -18 -52 -18 l-46 0
-46 73 c-51 79 -74 142 -84 229 -5 49 6 153 22 194 4 12 -47 14 -365 14 l-370
0 -4 71 c-2 39 0 75 3 81 4 6 143 -6 366 -31 198 -23 371 -41 385 -41 21 0 33
13 72 80 l46 80 43 0 42 0 190 331 c288 502 373 648 480 834 184 317 427 740
457 795 17 30 39 70 50 88 l20 32 98 0 99 0 -61 -107 c-34 -60 -72 -128 -86
-153 -14 -25 -34 -61 -45 -80 -11 -19 -30 -53 -42 -75 -38 -67 -107 -191 -225
-400 -61 -110 -126 -225 -143 -255 -16 -30 -76 -136 -132 -235 -56 -99 -148
-263 -205 -365 -57 -102 -132 -234 -167 -295 l-62 -110 84 -3 c81 -3 85 -4 75
-23 -14 -24 -13 -25 120 -38 58 -6 265 -29 460 -51 195 -23 387 -44 425 -47
l70 -5 44 81 44 81 44 0 c47 0 37 -11 136 150 25 41 66 107 90 145 24 39 106
171 182 295 76 124 173 281 215 350 43 69 143 231 223 360 167 271 211 341
242 390 95 149 226 368 256 428 152 302 86 668 -166 919 l-73 73 2492 0 c1370
0 2496 -4 2501 -8 6 -4 28 -70 48 -146 21 -77 39 -141 40 -142 4 -4 316 -24
370 -24 26 0 46 3 44 8 -4 6 -28 112 -64 285 -3 15 -2 27 3 26 5 -1 568 -1
1252 0 l1242 1 0 105 0 105 -1842 0 c-1014 0 -2899 0 -4189 0 l-2346 0 -184
-34 c-183 -34 -185 -34 -534 -37 l-350 -4 -96 38 -97 37 -180 0 -180 0 -6 28
c-7 31 -36 228 -36 240 0 5 -28 44 -62 88 -95 120 -680 1002 -673 1014 3 5 10
10 14 10 4 0 55 -71 111 -157 57 -87 110 -166 118 -175 17 -20 14 -22 222 153
63 53 225 188 360 299 135 112 245 209 245 216 0 7 -85 131 -190 275 -143 197
-205 274 -250 311 -69 56 -157 102 -235 124 -66 17 -326 31 -745 38 -254 5
-321 3 -369 -9z m-127 -5502 l1 -233 -170 0 c-93 0 -170 2 -170 4 0 3 37 72
115 213 13 22 66 117 117 210 l93 168 6 -65 c4 -36 7 -170 8 -297z m-125 -826
c50 -39 78 -96 74 -155 l-3 -47 -182 -3 -181 -2 -7 29 c-14 66 41 166 110 198
18 8 54 12 91 10 49 -2 69 -8 98 -30z m1605 19 c15 -8 42 -31 59 -50 108 -123
21 -309 -144 -309 -45 0 -58 5 -88 31 -19 17 -41 34 -49 39 -25 14 -47 70 -47
118 0 106 79 184 188 185 29 0 66 -7 81 -14z m-1549 -261 c0 -2 -14 -20 -31
-40 -38 -43 -107 -66 -166 -56 -63 12 -133 62 -133 95 0 3 74 6 165 6 91 0
165 -2 165 -5z"/>
<path d="M14840 9116 c0 -2 11 -6 25 -8 13 -3 22 -1 19 3 -5 9 -44 13 -44 5z"/>
<path d="M15280 9116 c0 -4 10 -11 23 -16 22 -9 22 -9 -3 -10 l-25 -1 24 -10
c18 -7 27 -6 33 3 12 19 10 28 -6 28 -8 0 -21 3 -30 6 -9 3 -16 3 -16 0z"/>
<path d="M15138 9103 c-35 -9 -18 -24 18 -17 26 5 39 3 45 -7 7 -11 9 -11 9 2
0 25 -29 34 -72 22z"/>
<path d="M14751 9069 c-32 -34 -43 -61 -16 -39 12 10 15 10 15 -4 0 -9 4 -16
10 -16 5 0 6 -8 3 -17 -6 -16 -5 -16 10 -4 14 11 17 11 17 -1 0 -10 11 -13 40
-10 39 4 55 24 28 35 -8 3 -6 6 5 6 18 1 25 41 7 41 -18 0 -11 20 8 21 14 0
14 2 -3 9 -11 5 -29 8 -40 8 -16 0 -15 -2 5 -8 24 -8 24 -8 -5 -9 -17 -1 -36
4 -42 10 -9 9 -19 3 -42 -22z m44 1 c-3 -5 -13 -6 -21 -3 -12 4 -13 8 -3 14
15 9 32 2 24 -11z m51 -39 c-1 -28 -4 -37 -12 -30 -6 5 -18 7 -26 4 -21 -8
-45 22 -30 37 9 9 12 8 13 -2 0 -8 4 -5 9 8 5 12 18 22 28 22 15 0 18 -7 18
-39z m-76 19 c0 -5 -4 -10 -10 -10 -5 0 -10 5 -10 10 0 6 5 10 10 10 6 0 10
-4 10 -10z"/>
<path d="M15400 9060 c0 -19 3 -21 12 -12 9 9 9 15 0 24 -9 9 -12 7 -12 -12z"/>
<path d="M14620 9045 c0 -9 -7 -18 -16 -22 -9 -3 -20 -15 -24 -27 -9 -21 -9
-21 -9 2 -1 25 -16 29 -25 6 -9 -24 1 -33 31 -28 20 4 32 -2 50 -22 13 -15 23
-22 23 -16 0 6 3 18 6 27 4 10 2 15 -6 13 -7 -2 -15 3 -18 11 -3 9 0 12 9 9
11 -4 14 2 11 28 -4 34 -32 50 -32 19z"/>
<path d="M15083 9045 c-18 -19 -16 -30 1 -16 12 10 23 5 58 -26 l43 -38 -39
45 c-47 53 -47 53 -63 35z"/>
<path d="M15284 9007 c-3 -9 1 -26 10 -39 11 -15 16 -18 17 -8 4 42 -16 75
-27 47z"/>
<path d="M14730 8994 c0 -8 5 -12 10 -9 6 3 10 10 10 16 0 5 -4 9 -10 9 -5 0
-10 -7 -10 -16z"/>
<path d="M15380 8981 c0 -10 -6 -22 -12 -24 -8 -4 -7 -6 4 -6 9 -1 18 -7 21
-13 2 -7 8 -9 13 -5 5 4 2 12 -5 17 -8 4 -11 15 -8 24 3 8 2 18 -3 21 -6 4
-10 -3 -10 -14z"/>
<path d="M14702 8965 c0 -16 2 -22 5 -12 2 9 2 23 0 30 -3 6 -5 -1 -5 -18z"/>
<path d="M14990 8976 c0 -9 5 -16 10 -16 6 0 10 4 10 9 0 6 -4 13 -10 16 -5 3
-10 -1 -10 -9z"/>
<path d="M15010 8955 c-8 -9 -8 -15 -2 -15 12 0 26 19 19 26 -2 2 -10 -2 -17
-11z"/>
<path d="M15045 8960 c-3 -5 1 -10 10 -10 9 0 13 5 10 10 -3 6 -8 10 -10 10
-2 0 -7 -4 -10 -10z"/>
<path d="M15190 8964 c0 -13 18 -39 24 -34 2 3 -2 14 -10 24 -8 11 -14 16 -14
10z"/>
<path d="M14533 8928 c16 -45 16 -55 -6 -79 -31 -35 -49 -69 -37 -69 5 0 10
-7 10 -15 0 -8 -5 -14 -11 -12 -6 1 -13 -13 -15 -31 -2 -18 -9 -42 -14 -53 -7
-13 -7 -19 0 -19 5 0 10 6 10 13 0 8 3 7 10 -3 5 -8 14 -15 20 -15 6 0 15 -7
20 -14 7 -12 10 -8 16 15 4 16 12 32 18 36 6 4 7 10 3 14 -13 13 -38 -18 -32
-40 5 -15 4 -17 -3 -7 -5 7 -14 11 -20 7 -5 -3 -13 1 -16 10 -4 9 -5 18 -4 18
2 1 15 7 30 14 26 11 27 14 22 59 -3 26 -10 50 -15 52 -15 5 22 30 46 31 11 1
14 4 8 7 -7 2 -13 12 -13 21 0 13 2 14 9 3 6 -9 11 -10 15 -2 4 6 12 11 18 11
6 0 5 -7 -3 -17 -12 -14 -12 -16 1 -11 8 2 15 11 15 19 0 8 7 17 15 22 8 4 1
5 -17 2 -19 -2 -33 0 -33 6 0 6 -6 7 -12 3 -10 -6 -10 -4 0 7 19 20 15 29 -14
29 -17 0 -24 -4 -21 -12z m-13 -138 c0 -5 -4 -10 -10 -10 -5 0 -10 5 -10 10 0
6 5 10 10 10 6 0 10 -4 10 -10z m10 -34 c0 -3 -4 -8 -10 -11 -5 -3 -10 -1 -10
4 0 6 5 11 10 11 6 0 10 -2 10 -4z m-32 -31 c-3 -3 -9 2 -12 12 -6 14 -5 15 5
6 7 -7 10 -15 7 -18z"/>
<path d="M15283 8921 c-3 -11 -10 -18 -17 -15 -7 3 -12 -4 -12 -16 0 -36 12
-25 44 43 2 4 0 7 -3 7 -4 0 -9 -9 -12 -19z"/>
<path d="M15345 8923 c-5 -10 -7 -24 -6 -30 1 -7 -3 -13 -9 -13 -5 0 -10 -9
-10 -20 0 -11 5 -20 11 -20 5 0 8 4 5 9 -3 5 1 14 9 21 13 11 14 10 9 -6 -4
-10 -4 -16 0 -12 5 4 18 3 31 -2 21 -8 24 -5 38 36 14 44 14 45 -5 27 -11 -10
-22 -13 -26 -8 -4 6 -14 16 -23 23 -14 10 -18 10 -24 -5z m25 -19 c0 -8 -19
-13 -24 -6 -3 5 1 9 9 9 8 0 15 -2 15 -3z"/>
<path d="M15180 8905 c-11 -13 -10 -14 4 -9 9 3 16 10 16 15 0 13 -6 11 -20
-6z"/>
<path d="M11473 8893 c9 -2 23 -2 30 0 6 3 -1 5 -18 5 -16 0 -22 -2 -12 -5z"/>
<path d="M14694 8879 c0 -10 5 -15 10 -12 6 4 6 -1 2 -13 -13 -32 -15 -67 -3
-55 14 14 16 98 2 98 -6 0 -11 -8 -11 -18z"/>
<path d="M14485 8869 c-4 -6 -5 -13 -2 -16 7 -7 27 6 27 18 0 12 -17 12 -25
-2z"/>
<path d="M15136 8864 c-11 -7 -17 -17 -13 -20 3 -4 14 1 23 10 21 22 15 28
-10 10z"/>
<path d="M15234 8849 c-5 -9 -2 -10 9 -6 9 3 18 0 20 -9 4 -10 5 -9 3 2 -1 21
-22 29 -32 13z"/>
<path d="M14644 8822 c-26 -21 -39 -53 -19 -45 8 3 12 9 9 14 -3 5 0 9 5 9 6
0 11 -4 11 -10 0 -5 7 -7 15 -4 8 4 15 12 15 20 0 9 -6 11 -17 7 -16 -6 -16
-5 -4 10 17 22 12 21 -15 -1z"/>
<path d="M14475 8820 c3 -5 8 -10 11 -10 2 0 4 5 4 10 0 6 -5 10 -11 10 -5 0
-7 -4 -4 -10z"/>
<path d="M15184 8818 c-3 -4 -1 -8 5 -8 6 0 8 -7 4 -16 -5 -15 -3 -14 21 1 15
10 24 20 21 23 -9 9 -45 9 -51 0z"/>
<path d="M14770 8810 c20 -13 50 -13 50 0 0 6 -15 10 -32 10 -25 0 -29 -3 -18
-10z"/>
<path d="M15228 8791 c-13 -11 -37 -21 -53 -24 l-30 -4 28 -2 c19 0 26 -5 21
-13 -4 -7 -3 -8 4 -4 7 4 12 1 12 -6 0 -7 11 -2 24 12 13 14 21 31 18 39 -4
10 -1 13 12 8 10 -4 15 -3 11 3 -9 14 -19 12 -47 -9z m6 -26 c-6 -16 -24 -21
-24 -7 0 11 11 22 21 22 5 0 6 -7 3 -15z"/>
<path d="M14770 8790 c8 -5 22 -9 30 -9 10 0 8 3 -5 9 -27 12 -43 12 -25 0z"/>
<path d="M15060 8785 c-7 -8 -18 -15 -25 -15 -7 0 -15 -6 -18 -13 -3 -8 1 -14
9 -14 8 0 12 2 10 5 -3 2 7 15 22 28 15 13 24 24 21 24 -4 0 -12 -7 -19 -15z"/>
<path d="M14670 8771 c0 -20 13 -41 25 -41 16 0 28 28 18 43 -4 7 -9 3 -14 -9
-7 -17 -8 -17 -8 -1 -1 17 -21 25 -21 8z"/>
<path d="M15085 8760 c-16 -17 -16 -20 -3 -15 9 4 19 13 22 21 7 19 2 18 -19
-6z"/>
<path d="M15355 8770 c-3 -5 -3 -10 2 -10 4 0 1 -5 -7 -10 -12 -8 -9 -9 12 -8
22 2 25 5 17 20 -11 21 -15 22 -24 8z"/>
<path d="M3100 8760 l265 -6 -263 -2 c-174 -1 -261 -5 -257 -12 4 -6 37 -8 83
-5 93 5 197 -4 184 -17 -5 -5 -51 -10 -103 -12 -159 -6 -154 -5 -142 -17 7 -7
36 -11 65 -9 84 3 94 3 278 -9 227 -14 230 -14 230 3 0 8 6 17 13 19 8 4 9 8
1 14 -6 4 -13 16 -17 25 -3 9 -14 18 -24 21 -10 2 5 3 32 1 41 -2 44 -1 20 5
-16 5 -165 8 -330 8 l-300 -1 265 -6z"/>
<path d="M14726 8755 c-3 -8 -1 -15 3 -15 5 0 11 7 15 15 3 8 1 15 -3 15 -5 0
-11 -7 -15 -15z"/>
<path d="M14624 8717 c0 -22 2 -35 4 -29 2 8 8 8 18 -2 8 -8 23 -13 34 -11 13
2 20 -2 20 -11 0 -8 8 -14 18 -14 13 0 14 2 3 9 -11 7 -10 10 6 15 11 4 28 15
38 26 17 19 16 19 -41 17 -49 -3 -62 0 -79 19 l-20 21 -1 -40z"/>
<path d="M14650 8744 c0 -8 5 -12 10 -9 6 4 8 11 5 16 -9 14 -15 11 -15 -7z"/>
<path d="M15110 8744 c0 -8 5 -12 10 -9 6 3 10 10 10 16 0 5 -4 9 -10 9 -5 0
-10 -7 -10 -16z"/>
<path d="M2750 8740 c0 -5 7 -7 15 -4 8 4 15 8 15 10 0 2 -7 4 -15 4 -8 0 -15
-4 -15 -10z"/>
<path d="M14557 8729 c4 -15 8 -17 14 -8 8 14 3 29 -11 29 -4 0 -6 -9 -3 -21z"/>
<path d="M2690 8720 c-9 -6 -10 -10 -3 -10 6 0 15 5 18 10 8 12 4 12 -15 0z"/>
<path d="M14870 8715 c-7 -9 -11 -18 -8 -20 3 -3 11 1 18 10 7 9 11 18 8 20
-3 3 -11 -1 -18 -10z"/>
<path d="M15370 8709 c-6 -11 -10 -28 -8 -37 2 -10 8 -1 15 21 12 41 10 48 -7
16z"/>
<path d="M2735 8706 c-34 -11 -37 -14 -20 -21 11 -4 24 -10 29 -13 5 -3 6 -1
3 5 -3 5 9 15 28 21 20 6 35 6 35 1 0 -5 7 -9 16 -9 14 0 14 2 0 15 -17 18
-37 18 -91 1z"/>
<path d="M3642 8682 c35 -20 46 -32 42 -44 -3 -10 0 -26 6 -35 10 -15 11 -14
7 10 -3 18 0 26 7 24 6 -3 10 -10 8 -16 -4 -18 30 -49 36 -33 3 10 7 10 18 1
10 -8 11 -16 3 -33 -10 -17 -9 -19 2 -8 20 19 34 14 17 -5 -17 -21 -35 -51
-23 -41 4 4 14 3 21 -3 9 -7 14 -5 19 10 3 12 11 21 17 21 5 0 7 -8 4 -17 -4
-10 -4 -14 0 -10 4 4 14 1 23 -6 14 -11 15 -10 2 8 -39 53 -94 103 -109 97
-11 -4 -14 -1 -9 12 5 13 -8 26 -55 56 -33 22 -66 40 -72 40 -6 0 10 -13 36
-28z m154 -160 c-18 -16 -18 -16 -6 6 6 13 14 21 18 18 3 -4 -2 -14 -12 -24z"/>
<path d="M14937 8694 c6 -15 23 -19 23 -5 0 5 -7 11 -14 14 -10 4 -13 1 -9 -9z"/>
<path d="M2650 8690 c8 -5 22 -9 30 -9 10 0 8 3 -5 9 -27 12 -43 12 -25 0z"/>
<path d="M2633 8676 c9 -7 17 -19 17 -27 0 -9 3 -10 8 -3 4 6 13 13 21 15 7 3
-4 10 -25 16 -33 10 -36 10 -21 -1z"/>
<path d="M15131 8628 c0 -31 -6 -60 -12 -64 -8 -4 -7 -9 2 -15 8 -4 19 -3 28
4 12 10 12 9 1 -13 -12 -23 -12 -24 3 -12 8 7 15 22 14 33 -1 21 -8 24 -23 9
-6 -6 -8 7 -6 34 2 24 2 52 -1 62 -3 11 -5 -7 -6 -38z"/>
<path d="M3063 8663 c9 -2 25 -2 35 0 9 3 1 5 -18 5 -19 0 -27 -2 -17 -5z"/>
<path d="M14592 8642 c-8 -13 -16 -31 -17 -41 0 -9 -5 -23 -10 -31 -7 -13 -6
-13 7 -2 9 8 15 19 12 27 -3 7 -1 16 5 20 6 3 11 -2 11 -13 0 -22 -34 -57 -48
-48 -6 3 -10 -9 -10 -29 0 -37 12 -53 24 -34 4 8 3 9 -4 5 -28 -17 -9 17 27
50 39 34 44 58 18 75 -6 4 -6 13 0 24 9 15 11 14 17 -9 6 -25 26 -37 26 -16 0
6 -5 10 -11 10 -6 0 -9 8 -7 18 8 27 -21 23 -40 -6z"/>
<path d="M14920 8659 c0 -5 5 -7 10 -4 6 3 10 8 10 11 0 2 -4 4 -10 4 -5 0
-10 -5 -10 -11z"/>
<path d="M15262 8640 c0 -19 2 -27 5 -17 2 9 2 25 0 35 -3 9 -5 1 -5 -18z"/>
<path d="M14778 8653 c6 -2 12 -11 12 -19 0 -8 5 -14 10 -14 7 0 7 6 0 20 -6
11 -16 20 -23 19 -9 0 -9 -2 1 -6z"/>
<path d="M15242 8640 c0 -14 2 -19 5 -12 2 6 2 18 0 25 -3 6 -5 1 -5 -13z"/>
<path d="M2567 8636 c-8 -8 -17 -13 -19 -11 -3 3 -14 -5 -26 -18 l-21 -22 32
1 c61 3 67 4 67 14 0 6 -15 8 -35 6 -21 -3 -33 -1 -29 5 3 5 9 7 13 4 11 -6
48 22 40 30 -4 3 -13 -1 -22 -9z"/>
<path d="M2614 8639 c-3 -6 -2 -15 4 -21 6 -6 11 -2 15 11 5 22 -7 29 -19 10z"/>
<path d="M15182 8620 c0 -14 2 -19 5 -12 2 6 2 18 0 25 -3 6 -5 1 -5 -13z"/>
<path d="M14981 8611 c-11 -7 -9 -11 8 -20 18 -10 21 -9 21 9 0 22 -7 25 -29
11z"/>
<path d="M14501 8593 c-8 -13 -10 -14 -11 -4 0 8 -2 12 -5 9 -3 -3 -2 -15 3
-27 7 -20 8 -20 19 9 12 33 10 39 -6 13z"/>
<path d="M15235 8564 c2 -27 4 -57 4 -67 1 -10 5 -16 10 -13 7 5 -5 115 -14
124 -2 3 -3 -17 0 -44z"/>
<path d="M14835 8580 c-3 -5 1 -10 10 -10 9 0 13 5 10 10 -3 6 -8 10 -10 10
-2 0 -7 -4 -10 -10z"/>
<path d="M15300 8579 c0 -5 5 -7 10 -4 6 3 10 8 10 11 0 2 -4 4 -10 4 -5 0
-10 -5 -10 -11z"/>
<path d="M14375 8567 c-4 -10 -5 -21 -1 -24 10 -10 18 4 13 24 -4 17 -4 17
-12 0z"/>
<path d="M14640 8566 c0 -7 9 -16 20 -19 11 -3 20 -2 20 2 0 3 -9 12 -20 19
-16 10 -20 10 -20 -2z"/>
<path d="M14932 8568 c-7 -7 -12 -18 -12 -25 0 -14 34 -35 43 -27 3 4 5 -2 5
-12 -1 -11 2 -30 6 -43 6 -16 5 -21 -3 -17 -7 5 -8 1 -4 -9 5 -13 7 -14 14 -3
9 15 0 90 -12 98 -4 3 -12 16 -16 28 -7 18 -11 20 -21 10z"/>
<path d="M15313 8563 c-15 -5 -18 -63 -4 -63 5 0 11 16 13 35 2 19 4 35 3 34
0 0 -6 -3 -12 -6z"/>
<path d="M2454 8539 c-19 -22 -19 -22 4 -8 12 8 22 17 22 21 0 12 -6 9 -26
-13z"/>
<path d="M14480 8516 c0 -14 4 -27 8 -30 5 -3 6 8 4 25 -5 35 -12 38 -12 5z"/>
<path d="M15210 8534 c0 -7 -11 -22 -25 -35 -13 -13 -25 -29 -25 -34 0 -6 -8
-11 -17 -12 -10 -1 -40 -9 -68 -17 l-50 -15 67 2 c36 1 64 5 62 8 -2 4 3 10
12 13 9 4 14 13 10 21 -7 19 8 19 28 0 9 -9 17 -11 21 -5 10 15 -4 30 -21 23
-14 -5 -15 -3 -4 17 10 18 14 20 21 9 5 -8 9 -9 9 -4 0 6 -5 17 -10 25 -5 8
-10 10 -10 4z"/>
<path d="M2466 8513 c-6 -14 -5 -15 5 -6 7 7 10 15 7 18 -3 3 -9 -2 -12 -12z"/>
<path d="M14711 8504 c0 -11 3 -14 6 -6 3 7 2 16 -1 19 -3 4 -6 -2 -5 -13z"/>
<path d="M2420 8481 c-6 -16 -10 -38 -7 -48 3 -13 5 -11 6 7 0 14 8 36 17 48
8 12 11 22 6 22 -5 0 -15 -13 -22 -29z"/>
<path d="M14880 8495 c-7 -9 -10 -18 -6 -22 3 -3 6 -1 6 5 0 7 9 12 20 12 11
0 20 5 20 10 0 15 -26 12 -40 -5z"/>
<path d="M2499 8493 c-1 -5 -1 -11 0 -16 1 -4 -12 -10 -27 -13 -24 -5 -28 -10
-24 -34 3 -23 8 -27 26 -23 11 3 36 7 54 10 30 5 32 8 32 44 0 40 -7 48 -28
27 -9 -9 -12 -9 -12 0 0 13 -19 17 -21 5z"/>
<path d="M14386 8492 c-7 -12 4 -52 15 -52 5 0 9 9 9 20 0 11 0 23 1 27 1 11
-18 15 -25 5z"/>
<path d="M15001 8484 c0 -11 3 -14 6 -6 3 7 2 16 -1 19 -3 4 -6 -2 -5 -13z"/>
<path d="M15036 8491 c-19 -7 -18 -8 4 -14 13 -3 26 -4 29 -2 2 3 -2 5 -10 5
-11 0 -11 2 1 10 18 11 3 12 -24 1z"/>
<path d="M15085 8490 c-3 -6 1 -7 9 -4 18 7 21 14 7 14 -6 0 -13 -4 -16 -10z"/>
<path d="M3856 8465 c-3 -9 -2 -14 3 -11 5 3 12 -1 15 -10 4 -9 9 -14 12 -11
3 3 -1 15 -9 27 -12 18 -15 19 -21 5z"/>
<path d="M14485 8449 c1 -10 5 -22 10 -26 4 -5 5 -3 1 4 -3 6 -2 14 4 18 5 3
10 1 10 -5 0 -6 4 -8 10 -5 6 4 5 11 -2 19 -17 18 -35 16 -33 -5z"/>
<path d="M14705 8450 c3 -5 12 -7 20 -3 21 7 19 13 -6 13 -11 0 -18 -4 -14
-10z"/>
<path d="M14340 8424 c0 -14 4 -23 9 -19 11 6 10 45 -1 45 -4 0 -8 -12 -8 -26z"/>
<path d="M14786 8433 c-8 -21 -1 -27 17 -16 12 6 13 10 2 20 -10 10 -15 9 -19
-4z"/>
<path d="M15183 8443 c-15 -5 -17 -23 -4 -23 5 0 11 7 15 15 3 8 4 15 3 14 -1
0 -8 -3 -14 -6z"/>
<path d="M3840 8428 c0 -7 5 -20 10 -28 8 -12 10 -11 10 7 0 12 -4 25 -10 28
-5 3 -10 0 -10 -7z"/>
<path d="M14568 8413 c-19 -23 0 -26 27 -5 24 19 25 21 5 19 -12 -1 -26 -7
-32 -14z"/>
<path d="M15245 8420 c-3 -5 1 -10 9 -10 9 0 16 5 16 10 0 6 -4 10 -9 10 -6 0
-13 -4 -16 -10z"/>
<path d="M3898 8393 c5 -21 7 -23 10 -9 2 10 0 22 -6 28 -6 6 -7 0 -4 -19z"/>
<path d="M14430 8406 c0 -21 21 -31 31 -15 14 22 11 29 -11 29 -11 0 -20 -6
-20 -14z"/>
<path d="M2376 8402 c-11 -18 -25 -62 -20 -62 2 0 9 10 14 23 7 19 9 16 10
-18 1 -22 5 -49 10 -60 6 -13 8 3 7 48 -1 65 -9 89 -21 69z"/>
<path d="M3871 8385 c0 -11 4 -27 9 -35 9 -13 10 -13 9 0 0 8 -4 24 -9 35 l-9
20 0 -20z"/>
<path d="M14755 8389 c-4 -6 -5 -13 -2 -16 7 -7 27 6 27 18 0 12 -17 12 -25
-2z"/>
<path d="M15025 8391 c-3 -5 -1 -12 5 -16 5 -3 10 1 10 9 0 18 -6 21 -15 7z"/>
<path d="M15220 8389 c0 -5 5 -7 10 -4 6 3 10 8 10 11 0 2 -4 4 -10 4 -5 0
-10 -5 -10 -11z"/>
<path d="M14397 8350 c-14 -17 -15 -20 -2 -20 9 0 18 7 22 15 9 24 -1 27 -20
5z"/>
<path d="M2405 8350 c-3 -5 -1 -10 4 -10 6 0 11 5 11 10 0 6 -2 10 -4 10 -3 0
-8 -4 -11 -10z"/>
<path d="M3925 8317 c2 -27 6 -51 9 -54 12 -12 12 3 0 52 l-13 50 4 -48z"/>
<path d="M14778 8343 c6 -2 18 -2 25 0 6 3 1 5 -13 5 -14 0 -19 -2 -12 -5z"/>
<path d="M14490 8331 c0 -5 9 -11 21 -14 16 -4 18 -3 8 9 -13 16 -29 19 -29 5z"/>
<path d="M14753 8323 c65 -2 168 -2 230 0 62 1 9 3 -118 3 -126 0 -177 -2
-112 -3z"/>
<path d="M2352 8308 c-14 -14 -16 -28 -3 -28 5 0 11 9 14 20 6 23 5 24 -11 8z"/>
<path d="M2361 8259 c-6 -18 -11 -45 -11 -61 0 -16 -4 -27 -8 -24 -5 3 -9 -21
-9 -52 l0 -57 7 45 c6 37 7 31 5 -30 -1 -41 3 -97 11 -125 l13 -50 -5 50 c-5
50 -5 50 10 20 18 -37 20 -29 5 14 -9 25 -14 30 -21 19 -7 -10 -8 -8 -4 5 3
10 7 37 8 60 l1 42 7 -45 c6 -32 8 -12 6 67 0 61 2 109 5 107 3 -2 4 8 1 21
-6 32 -8 31 -21 -6z"/>
<path d="M6219 8167 c-80 -67 -266 -221 -412 -342 -147 -121 -266 -222 -267
-225 0 -3 20 -33 44 -67 l43 -62 416 345 416 346 -46 61 c-25 34 -46 63 -47
64 -1 1 -67 -53 -147 -120z"/>
<path d="M2332 8235 c0 -16 2 -22 5 -12 2 9 2 23 0 30 -3 6 -5 -1 -5 -18z"/>
<path d="M3950 8222 c0 -6 -7 -9 -17 -5 -14 5 -15 1 -10 -27 4 -18 7 -38 7
-44 1 -6 8 9 16 32 9 24 13 46 10 50 -3 3 -6 0 -6 -6z"/>
<path d="M2392 8108 c1 -67 4 -105 9 -93 11 28 11 205 0 205 -5 0 -9 -51 -9
-112z"/>
<path d="M3962 8160 c0 -14 2 -19 5 -12 2 6 2 18 0 25 -3 6 -5 1 -5 -13z"/>
<path d="M3952 8073 c-1 -17 -5 -38 -8 -47 -4 -11 0 -16 13 -16 10 0 24 -5 31
-12 9 -9 12 -9 12 -1 0 7 -9 14 -19 18 -15 4 -21 17 -24 48 -3 33 -4 35 -5 10z"/>
<path d="M3920 7944 c0 -8 5 -12 10 -9 6 3 10 10 10 16 0 5 -4 9 -10 9 -5 0
-10 -7 -10 -16z"/>
<path d="M2380 7870 c-4 -25 2 -64 11 -80 6 -11 8 -7 8 15 -1 35 -16 87 -19
65z"/>
<path d="M3920 7840 c0 -5 4 -10 9 -10 6 0 13 5 16 10 3 6 -1 10 -9 10 -9 0
-16 -4 -16 -10z"/>
<path d="M16205 7829 c-9 -14 3 -59 15 -59 6 0 10 16 10 35 0 34 -12 46 -25
24z"/>
<path d="M3980 7779 c0 -5 5 -7 10 -4 6 3 10 8 10 11 0 2 -4 4 -10 4 -5 0 -10
-5 -10 -11z"/>
<path d="M14490 7782 c-90 -40 -129 -156 -77 -233 72 -107 202 -106 275 1 20
29 23 45 20 91 -5 65 -32 109 -82 133 -34 16 -108 20 -136 8z"/>
<path d="M4015 7745 c3 -16 8 -39 12 -50 l5 -20 -16 20 c-13 16 -12 10 3 -25
11 -25 24 -61 30 -80 l11 -35 -6 35 c-3 19 -7 58 -9 85 -3 43 -3 45 4 15 8
-34 8 -34 9 -5 0 37 -15 91 -17 60 -2 -18 -3 -18 -17 5 l-15 25 6 -30z"/>
<path d="M2443 7645 c0 -33 2 -45 4 -27 2 18 2 45 0 60 -2 15 -4 0 -4 -33z"/>
<path d="M2412 7660 c0 -14 2 -19 5 -12 2 6 2 18 0 25 -3 6 -5 1 -5 -13z"/>
<path d="M3998 7634 c-3 -11 1 -29 8 -39 14 -18 14 -18 13 1 0 10 -4 28 -8 38
-7 20 -8 19 -13 0z"/>
<path d="M2461 7614 c0 -11 3 -14 6 -6 3 7 2 16 -1 19 -3 4 -6 -2 -5 -13z"/>
<path d="M4060 7610 c0 -5 5 -10 10 -10 6 0 10 5 10 10 0 6 -4 10 -10 10 -5 0
-10 -4 -10 -10z"/>
<path d="M4083 7490 c0 -69 2 -77 7 -40 4 25 4 63 1 85 -6 30 -7 19 -8 -45z"/>
<path d="M2431 7544 c0 -11 3 -14 6 -6 3 7 2 16 -1 19 -3 4 -6 -2 -5 -13z"/>
<path d="M2456 7544 c-4 -9 -4 -19 -1 -22 3 -3 5 1 5 9 0 11 2 11 10 -1 8 -13
10 -13 10 2 0 23 -17 31 -24 12z"/>
<path d="M2445 7480 c3 -14 10 -45 15 -70 9 -42 9 -41 4 15 -3 33 -10 65 -16
70 -6 7 -7 1 -3 -15z"/>
<path d="M6790 7487 c0 -17 31 -22 213 -33 104 -6 107 -5 107 15 0 19 -6 21
-53 21 -30 0 -102 3 -160 7 -94 5 -107 4 -107 -10z"/>
<path d="M2472 7465 c0 -16 2 -22 5 -12 2 9 2 23 0 30 -3 6 -5 -1 -5 -18z"/>
<path d="M4101 7438 c0 -20 -5 -40 -11 -43 -14 -8 -13 -48 2 -63 9 -9 9 -21 0
-50 -7 -22 -12 -48 -11 -58 0 -17 1 -17 9 2 16 41 29 169 21 209 l-9 40 -1
-37z m-4 -80 c-3 -7 -5 -2 -5 12 0 14 2 19 5 13 2 -7 2 -19 0 -25z"/>
<path d="M2472 7340 c0 -14 2 -19 5 -12 2 6 2 18 0 25 -3 6 -5 1 -5 -13z"/>
<path d="M4121 7334 c0 -11 3 -14 6 -6 3 7 2 16 -1 19 -3 4 -6 -2 -5 -13z"/>
<path d="M14478 7316 c-48 -13 -62 -21 -111 -65 -80 -71 -103 -210 -54 -308
49 -95 130 -145 237 -145 78 -1 123 16 180 69 107 96 116 257 20 366 -69 78
-174 111 -272 83z"/>
<path d="M4130 7289 c0 -11 -4 -17 -10 -14 -5 3 -10 0 -10 -7 0 -7 -3 -23 -6
-35 -8 -29 21 -32 36 -4 13 25 13 41 -1 21 -7 -11 -8 -5 -3 23 3 20 3 37 0 37
-3 0 -6 -9 -6 -21z"/>
<path d="M10987 7290 c3 -11 9 -20 14 -20 7 0 138 -20 709 -109 140 -22 256
-38 259 -35 3 2 -7 44 -21 92 l-25 87 -470 3 c-468 2 -471 2 -466 -18z"/>
<path d="M2482 7280 c0 -14 2 -19 5 -12 2 6 2 18 0 25 -3 6 -5 1 -5 -13z"/>
<path d="M2492 7230 c0 -14 2 -19 5 -12 2 6 2 18 0 25 -3 6 -5 1 -5 -13z"/>
<path d="M2508 7197 c-2 -12 2 -49 9 -82 l12 -60 -5 63 c-4 44 -2 62 5 57 6
-3 11 2 11 13 0 29 -27 36 -32 9z"/>
<path d="M2553 7196 c0 -14 3 -26 8 -26 11 0 11 21 0 39 -6 9 -8 5 -8 -13z"/>
<path d="M4164 7084 c0 -30 2 -33 9 -16 5 12 5 26 0 36 -7 12 -9 7 -9 -20z"/>
<path d="M2537 7061 c-10 -46 -6 -72 4 -36 7 26 8 23 5 -15 -2 -25 0 -56 4
-70 4 -17 7 -2 8 44 0 37 -3 78 -7 89 -7 18 -9 17 -14 -12z"/>
<path d="M4182 7030 c0 -14 2 -19 5 -12 2 6 2 18 0 25 -3 6 -5 1 -5 -13z"/>
<path d="M4171 6985 c0 -11 -4 -31 -7 -45 -5 -19 -4 -22 5 -14 7 6 11 26 8 45
-2 19 -5 25 -6 14z"/>
<path d="M4192 6925 c0 -58 1 -64 8 -35 5 19 5 51 0 70 -7 29 -8 23 -8 -35z"/>
<path d="M3090 6890 c0 -5 7 -10 15 -10 8 0 15 5 15 10 0 6 -7 10 -15 10 -8 0
-15 -4 -15 -10z"/>
<path d="M4206 6859 c-4 -23 -4 -44 -1 -47 3 -3 5 6 5 19 0 19 2 21 10 9 7
-11 8 -5 4 20 -9 47 -10 47 -18 -1z"/>
<path d="M2845 6880 c3 -5 10 -10 16 -10 5 0 9 5 9 10 0 6 -7 10 -16 10 -8 0
-12 -4 -9 -10z"/>
<path d="M2577 6858 c-3 -11 1 -30 9 -42 7 -11 14 -30 14 -41 0 -16 -2 -17
-10 -5 -9 13 -10 13 -9 0 0 -8 6 -42 13 -75 12 -54 14 -57 21 -32 4 16 3 33
-4 40 -7 9 -8 33 -2 73 5 32 9 49 10 37 1 -25 11 -29 27 -13 8 8 7 21 0 45 -9
28 -16 35 -37 35 -19 0 -28 -6 -32 -22z"/>
<path d="M4170 6856 c0 -14 4 -27 8 -30 5 -3 6 8 4 25 -5 35 -12 38 -12 5z"/>
<path d="M2812 6845 c-13 -28 -6 -31 21 -11 14 11 15 15 4 25 -11 8 -16 5 -25
-14z"/>
<path d="M12453 6843 c86 -2 228 -2 315 0 86 1 15 3 -158 3 -173 0 -244 -2
-157 -3z"/>
<path d="M13318 6843 c67 -2 177 -2 245 0 67 1 12 3 -123 3 -135 0 -190 -2
-122 -3z"/>
<path d="M13690 6836 c0 -9 7 -16 15 -16 24 0 17 -20 -7 -21 -13 -1 -26 -1
-30 0 -12 2 -9 -6 8 -23 9 -9 32 -16 55 -16 28 0 38 -4 33 -12 -4 -6 -3 -8 4
-5 14 9 9 42 -7 42 -14 0 -32 26 -25 37 3 4 17 8 31 8 38 0 25 6 -29 14 -40 6
-48 5 -48 -8z"/>
<path d="M2865 6820 c3 -5 8 -10 11 -10 2 0 4 5 4 10 0 6 -5 10 -11 10 -5 0
-7 -4 -4 -10z"/>
<path d="M12344 6823 c4 -4 72 -6 151 -5 86 1 145 -2 145 -8 0 -5 -73 -11
-167 -14 -262 -7 -253 -5 -248 -41 2 -16 4 -33 4 -37 1 -4 7 -5 14 -2 7 2 23
-5 36 -17 12 -11 24 -19 27 -16 8 8 -7 57 -18 57 -5 0 -6 5 -3 11 4 6 10 8 13
5 3 -3 12 0 20 7 9 6 13 7 10 2 -4 -7 45 -9 143 -7 103 2 149 -1 149 -8 0 -8
15 -9 48 -4 43 7 57 8 115 13 10 0 17 9 17 21 0 17 -7 20 -40 20 -76 0 -40 19
43 23 45 1 -41 4 -192 5 -151 1 -271 -1 -267 -5z m196 -43 c0 -5 -4 -10 -10
-10 -5 0 -10 5 -10 10 0 6 5 10 10 10 6 0 10 -4 10 -10z m250 6 c0 -3 -4 -8
-10 -11 -5 -3 -10 -1 -10 4 0 6 5 11 10 11 6 0 10 -2 10 -4z m-549 -49 c-10
-9 -11 -8 -5 6 3 10 9 15 12 12 3 -3 0 -11 -7 -18z"/>
<path d="M12980 6825 c0 -2 10 -10 23 -16 20 -11 21 -11 8 4 -13 16 -31 23
-31 12z"/>
<path d="M13150 6783 c-31 -32 -36 -39 -15 -25 59 42 90 72 75 71 -8 0 -35
-21 -60 -46z"/>
<path d="M13251 6825 c3 -2 82 -5 177 -5 102 -1 170 -5 167 -11 -4 -5 -91 -9
-195 -9 -153 0 -189 -3 -193 -14 -9 -23 15 -26 191 -26 156 0 168 1 180 20 7
11 19 20 28 20 9 0 12 5 8 12 -5 7 -2 9 7 6 8 -3 23 -2 34 3 11 4 -76 8 -194
8 -118 1 -212 -1 -210 -4z"/>
<path d="M13740 6813 c0 -1 9 -7 19 -12 14 -8 22 -7 31 4 11 13 8 15 -19 13
-17 -1 -31 -3 -31 -5z"/>
<path d="M12265 6800 c3 -5 8 -10 11 -10 2 0 4 5 4 10 0 6 -5 10 -11 10 -5 0
-7 -4 -4 -10z"/>
<path d="M4220 6781 c0 -12 5 -21 10 -21 6 0 10 6 10 14 0 8 -4 18 -10 21 -5
3 -10 -3 -10 -14z"/>
<path d="M12822 6783 c5 -25 28 -28 28 -4 0 12 -6 21 -16 21 -9 0 -14 -7 -12
-17z"/>
<path d="M13030 6774 c0 -8 5 -12 10 -9 6 4 8 11 5 16 -9 14 -15 11 -15 -7z"/>
<path d="M2773 6763 c9 -2 23 -2 30 0 6 3 -1 5 -18 5 -16 0 -22 -2 -12 -5z"/>
<path d="M2930 6756 c0 -3 9 -10 20 -16 11 -6 20 -8 20 -6 0 3 -9 10 -20 16
-11 6 -20 8 -20 6z"/>
<path d="M4201 6744 c0 -11 3 -14 6 -6 3 7 2 16 -1 19 -3 4 -6 -2 -5 -13z"/>
<path d="M13591 6750 c-6 -3 9 -12 34 -19 46 -14 65 -9 65 15 0 10 -12 14 -45
12 -24 0 -49 -4 -54 -8z"/>
<path d="M13810 6751 c0 -6 5 -13 10 -16 6 -3 10 1 10 9 0 9 -4 16 -10 16 -5
0 -10 -4 -10 -9z"/>
<path d="M2699 6729 c-13 -12 -34 -25 -47 -30 -12 -5 -21 -12 -20 -16 0 -5 -2
-16 -7 -26 -4 -10 -5 -21 -1 -24 3 -4 6 1 6 11 0 9 3 16 8 14 4 -2 28 18 55
44 47 48 52 67 6 27z"/>
<path d="M4244 6671 c1 -44 4 -83 7 -86 3 -3 5 31 3 76 -1 44 -4 82 -7 85 -3
3 -4 -31 -3 -75z"/>
<path d="M12795 6739 c-4 -6 -4 -13 -1 -16 3 -4 6 -1 6 5 0 6 8 13 18 15 15 4
15 5 0 6 -9 0 -20 -4 -23 -10z"/>
<path d="M3020 6730 c0 -5 5 -10 10 -10 6 0 10 5 10 10 0 6 -4 10 -10 10 -5 0
-10 -4 -10 -10z"/>
<path d="M12750 6733 c0 -5 5 -15 10 -23 8 -12 10 -11 10 8 0 12 -4 22 -10 22
-5 0 -10 -3 -10 -7z"/>
<path d="M12325 6719 c-4 -6 -5 -12 -2 -15 2 -3 7 2 10 11 7 17 1 20 -8 4z"/>
<path d="M12896 6717 c3 -10 9 -15 12 -12 3 3 0 11 -7 18 -10 9 -11 8 -5 -6z"/>
<path d="M13773 6709 c-1 -13 5 -19 18 -19 24 0 25 26 1 32 -12 4 -18 -1 -19
-13z"/>
<path d="M2985 6710 c3 -5 10 -10 16 -10 5 0 9 5 9 10 0 6 -7 10 -16 10 -8 0
-12 -4 -9 -10z"/>
<path d="M12717 6709 c7 -7 15 -10 18 -7 3 3 -2 9 -12 12 -14 6 -15 5 -6 -5z"/>
<path d="M2856 6685 c-4 -11 0 -14 17 -11 12 3 24 5 27 5 6 2 -23 21 -31 21
-4 0 -9 -7 -13 -15z"/>
<path d="M12241 6697 c2 -1 13 -9 24 -17 19 -14 19 -14 6 3 -7 9 -18 17 -24
17 -6 0 -8 -1 -6 -3z"/>
<path d="M2749 6662 c-45 -55 -46 -56 -23 -42 22 13 48 49 42 56 -2 2 -11 -4
-19 -14z"/>
<path d="M2957 6673 c-3 -5 6 -9 19 -9 13 -1 21 2 18 7 -6 11 -31 12 -37 2z"/>
<path d="M3030 6659 c0 -5 5 -7 10 -4 6 3 10 8 10 11 0 2 -4 4 -10 4 -5 0 -10
-5 -10 -11z"/>
<path d="M4257 6528 c-10 -39 -15 -73 -12 -76 3 -3 5 2 5 11 0 10 5 17 10 17
14 0 12 -34 -2 -49 -11 -10 -10 -11 3 -6 13 5 22 -8 43 -57 23 -56 25 -59 20
-23 -4 22 -11 43 -17 46 -5 4 -6 15 -3 26 4 11 2 31 -4 44 -9 21 -9 20 -5 -11
4 -26 3 -30 -4 -15 -5 11 -9 51 -9 89 0 37 -2 69 -4 71 -2 2 -11 -28 -21 -67z"/>
<path d="M2760 6559 c0 -5 5 -7 10 -4 6 3 10 8 10 11 0 2 -4 4 -10 4 -5 0 -10
-5 -10 -11z"/>
<path d="M2620 6550 c0 -5 5 -10 11 -10 5 0 7 5 4 10 -3 6 -8 10 -11 10 -2 0
-4 -4 -4 -10z"/>
<path d="M2791 6504 c0 -11 3 -14 6 -6 3 7 2 16 -1 19 -3 4 -6 -2 -5 -13z"/>
<path d="M2645 6460 c-3 -5 -1 -10 4 -10 6 0 11 5 11 10 0 6 -2 10 -4 10 -3 0
-8 -4 -11 -10z"/>
<path d="M2707 6413 c-14 -51 -16 -73 -8 -73 18 0 37 75 22 85 -5 3 -12 -3
-14 -12z"/>
<path d="M4250 6385 c0 -9 6 -18 14 -21 8 -3 12 -12 9 -20 -3 -8 0 -14 6 -14
14 0 14 13 -1 45 -12 28 -28 33 -28 10z"/>
<path d="M2661 6371 c-2 -30 23 -141 32 -141 5 0 7 9 4 20 -3 11 -1 23 4 26 5
3 9 -3 10 -13 0 -12 2 -14 6 -5 3 8 -1 25 -8 39 l-14 25 -6 -23 c-7 -22 -7
-22 -9 6 -2 34 -17 87 -19 66z"/>
<path d="M4325 6280 c-3 -5 -1 -18 4 -27 9 -16 10 -14 11 10 0 28 -5 34 -15
17z"/>
<path d="M2692 6190 c0 -14 2 -19 5 -12 2 6 2 18 0 25 -3 6 -5 1 -5 -13z"/>
<path d="M4341 6173 c-1 -12 4 -25 9 -28 6 -3 11 -18 11 -33 1 -22 3 -23 6 -6
2 12 -3 37 -11 55 -12 28 -15 30 -15 12z"/>
<path d="M2706 6155 c-3 -9 -6 -22 -5 -28 0 -7 5 -1 10 12 5 13 8 26 5 28 -2
2 -6 -3 -10 -12z"/>
<path d="M4324 6125 c-3 -8 -4 -20 -2 -27 3 -7 7 -1 10 15 6 29 1 36 -8 12z"/>
<path d="M4341 6104 c0 -11 3 -14 6 -6 3 7 2 16 -1 19 -3 4 -6 -2 -5 -13z"/>
<path d="M2712 6090 c0 -14 2 -19 5 -12 2 6 2 18 0 25 -3 6 -5 1 -5 -13z"/>
<path d="M4344 6066 c-3 -9 -9 -14 -13 -12 -3 2 -7 -12 -8 -33 -1 -27 1 -31 7
-16 5 11 9 16 10 10 1 -5 6 6 10 25 9 37 5 54 -6 26z"/>
<path d="M4368 6055 c-4 -17 -1 -43 7 -60 7 -16 16 -37 19 -45 3 -8 3 1 0 20
-4 19 -9 53 -13 75 -7 40 -7 40 -13 10z"/>
<path d="M2732 6000 c0 -14 2 -19 5 -12 2 6 2 18 0 25 -3 6 -5 1 -5 -13z"/>
<path d="M16904 5923 c-375 -379 -612 -827 -799 -1509 -19 -68 -36 -128 -39
-132 -2 -4 -20 -80 -40 -169 -61 -273 -92 -503 -98 -712 -2 -90 -1 -94 19 -96
12 -1 20 2 17 7 -3 4 0 84 6 178 12 187 45 416 85 585 14 61 32 140 40 178 23
104 98 356 156 522 164 476 357 798 671 1121 97 99 114 124 86 124 -4 0 -51
-44 -104 -97z"/>
<path d="M4360 5958 c0 -16 5 -28 10 -28 13 0 13 20 0 40 -8 12 -10 9 -10 -12z"/>
<path d="M2783 5913 c0 -42 4 -60 11 -55 6 4 15 7 21 7 5 0 12 16 15 36 6 33
4 35 -16 31 -17 -3 -23 1 -27 19 -2 13 -4 -4 -4 -38z"/>
<path d="M4332 5950 c0 -14 2 -19 5 -12 2 6 2 18 0 25 -3 6 -5 1 -5 -13z"/>
<path d="M2760 5946 c0 -10 -5 -14 -12 -10 -8 5 -9 0 -5 -17 4 -13 7 -35 8
-49 1 -14 5 0 9 30 5 30 7 57 4 59 -2 2 -4 -3 -4 -13z"/>
<path d="M2870 5900 c0 -34 -3 -40 -20 -40 -18 0 -20 -6 -19 -38 2 -32 6 -38
26 -40 22 -2 23 1 23 78 0 44 -2 80 -5 80 -3 0 -5 -18 -5 -40z"/>
<path d="M4349 5922 c-1 -4 -1 -11 0 -16 1 -5 -5 -6 -14 -3 -11 5 -15 0 -15
-19 0 -23 3 -25 43 -22 34 2 43 7 45 25 3 18 -1 20 -19 16 -14 -4 -20 -2 -16
4 4 6 0 13 -8 17 -8 3 -16 2 -16 -2z"/>
<path d="M4405 5854 c-9 -20 -14 -38 -10 -42 3 -3 8 4 12 17 4 17 8 19 14 9 6
-9 9 -2 9 20 0 17 -2 32 -4 32 -2 0 -11 -16 -21 -36z"/>
<path d="M2768 5823 c-2 -10 -1 -29 3 -43 6 -23 7 -22 9 10 2 33 3 33 10 10 9
-24 9 -24 7 4 -2 33 -22 46 -29 19z"/>
<path d="M2782 5725 c0 -11 4 -33 8 -50 7 -27 8 -27 8 -5 0 14 -4 36 -8 50 -6
20 -8 21 -8 5z"/>
<path d="M4282 5720 c0 -14 2 -19 5 -12 2 6 2 18 0 25 -3 6 -5 1 -5 -13z"/>
<path d="M4437 5708 c9 -49 19 -54 15 -8 -2 22 -8 40 -13 40 -5 0 -6 -15 -2
-32z"/>
<path d="M4203 5660 c0 -30 2 -43 4 -27 2 15 2 39 0 55 -2 15 -4 2 -4 -28z"/>
<path d="M4313 5665 c0 -22 2 -30 4 -17 2 12 2 30 0 40 -3 9 -5 -1 -4 -23z"/>
<path d="M4293 5655 c0 -22 2 -30 4 -17 2 12 2 30 0 40 -3 9 -5 -1 -4 -23z"/>
<path d="M14880 5657 c0 -9 39 -34 93 -61 170 -83 306 -211 442 -416 206 -310
337 -675 400 -1120 25 -175 52 -623 42 -707 -3 -28 0 -43 8 -47 7 -2 16 -2 19
1 11 12 5 389 -9 549 -34 379 -98 646 -232 964 -168 397 -395 676 -658 807
-82 42 -105 48 -105 30z"/>
<path d="M4421 5634 c0 -11 3 -14 6 -6 3 7 2 16 -1 19 -3 4 -6 -2 -5 -13z"/>
<path d="M2865 5609 c-7 -22 -8 -22 -23 -3 -13 17 -14 17 -8 1 3 -10 6 -31 7
-45 l1 -27 9 25 c7 21 8 19 3 -10 -7 -50 -5 -85 5 -112 7 -16 8 -6 6 37 -3 44
-2 51 3 25 l8 -35 5 33 c3 18 2 35 -3 38 -11 7 -10 62 2 66 5 2 6 9 1 17 -7
10 -10 8 -16 -10z"/>
<path d="M2812 5565 c0 -16 2 -22 5 -12 2 9 2 23 0 30 -3 6 -5 -1 -5 -18z"/>
<path d="M4369 5564 c-9 -11 -22 -14 -41 -10 -15 3 -28 1 -28 -4 0 -6 12 -9
28 -9 32 2 93 16 74 18 -7 0 -10 6 -7 11 10 16 -11 11 -26 -6z"/>
<path d="M4140 5546 c0 -2 7 -7 16 -10 8 -3 12 -2 9 4 -6 10 -25 14 -25 6z"/>
<path d="M4033 5520 c-1 -12 4 -20 13 -20 12 0 12 4 4 20 -6 11 -12 20 -13 20
-2 0 -3 -9 -4 -20z"/>
<path d="M4290 5525 c7 -8 17 -12 22 -9 6 4 5 10 -3 15 -22 14 -33 10 -19 -6z"/>
<path d="M2821 5514 c0 -11 3 -14 6 -6 3 7 2 16 -1 19 -3 4 -6 -2 -5 -13z"/>
<path d="M4180 5512 c0 -6 5 -14 11 -17 6 -4 8 -14 5 -22 -3 -8 -1 -11 4 -8
15 9 12 31 -5 45 -9 8 -15 9 -15 2z"/>
<path d="M4492 5475 c0 -16 2 -22 5 -12 2 9 2 23 0 30 -3 6 -5 -1 -5 -18z"/>
<path d="M2832 5470 c0 -14 2 -19 5 -12 2 6 2 18 0 25 -3 6 -5 1 -5 -13z"/>
<path d="M4310 5479 c0 -5 5 -7 10 -4 6 3 10 8 10 11 0 2 -4 4 -10 4 -5 0 -10
-5 -10 -11z"/>
<path d="M4280 5470 c0 -5 5 -10 10 -10 6 0 10 5 10 10 0 6 -4 10 -10 10 -5 0
-10 -4 -10 -10z"/>
<path d="M3358 5453 c299 -2 471 -7 467 -13 -3 -5 7 -13 22 -17 l28 -7 -25 -7
c-24 -7 -24 -7 5 -8 17 -1 36 -6 43 -13 9 -9 12 -8 12 5 0 9 7 17 16 17 9 0
14 6 11 13 -2 6 -20 12 -39 12 -25 -1 -34 3 -31 12 4 9 -100 12 -489 10 l-493
-2 473 -2z"/>
<path d="M2842 5420 c0 -14 2 -19 5 -12 2 6 2 18 0 25 -3 6 -5 1 -5 -13z"/>
<path d="M4930 5430 c0 -5 -7 -10 -15 -10 -32 0 -13 -17 21 -18 29 -1 35 2 30
14 -3 9 -6 18 -6 20 0 2 -7 4 -15 4 -8 0 -15 -4 -15 -10z"/>
<path d="M4220 5409 c0 -5 5 -7 10 -4 6 3 10 8 10 11 0 2 -4 4 -10 4 -5 0 -10
-5 -10 -11z"/>
<path d="M5925 5410 c-13 -5 -14 -9 -5 -9 8 0 24 4 35 9 13 5 14 9 5 9 -8 0
-24 -4 -35 -9z"/>
<path d="M4160 5390 c0 -5 5 -10 11 -10 5 0 7 5 4 10 -3 6 -8 10 -11 10 -2 0
-4 -4 -4 -10z"/>
<path d="M3985 5370 c-3 -5 -1 -10 4 -10 6 0 11 5 11 10 0 6 -2 10 -4 10 -3 0
-8 -4 -11 -10z"/>
<path d="M4910 5368 c1 -29 36 -56 83 -62 42 -7 47 -5 47 12 0 22 -19 33 -50
27 -11 -2 -20 0 -20 4 0 5 -8 11 -17 15 -10 3 -24 9 -30 12 -7 3 -13 0 -13 -8z"/>
<path d="M4980 5370 c20 -13 60 -13 60 0 0 6 -17 10 -37 10 -28 0 -34 -3 -23
-10z"/>
<path d="M4593 5353 c53 -2 141 -2 195 0 53 1 9 3 -98 3 -107 0 -151 -2 -97
-3z"/>
<path d="M2777 5324 c-2 -13 0 -24 4 -24 5 0 5 -8 2 -17 -5 -13 -3 -13 13 3
17 16 18 20 4 25 -11 5 -10 7 7 10 l23 4 -24 11 c-22 10 -25 9 -29 -12z"/>
<path d="M2828 5343 c6 -2 18 -2 25 0 6 3 1 5 -13 5 -14 0 -19 -2 -12 -5z"/>
<path d="M2870 5340 c0 -5 -7 -10 -15 -10 -18 0 -20 -16 -3 -26 6 -4 14 -2 16
4 3 9 128 13 490 14 l487 3 -485 5 -485 5 490 5 490 5 -492 3 c-324 1 -493 -1
-493 -8z"/>
<path d="M4069 5348 c-7 -23 -5 -39 5 -47 10 -8 11 -3 8 19 -4 25 -10 38 -13
28z"/>
<path d="M4885 5340 c-3 -5 -1 -10 4 -10 6 0 11 5 11 10 0 6 -2 10 -4 10 -3 0
-8 -4 -11 -10z"/>
<path d="M6086 5324 c-3 -8 -1 -24 4 -34 11 -21 13 -41 2 -24 -5 9 -11 8 -20
-2 -10 -11 -10 -14 1 -14 8 0 22 -9 32 -20 13 -15 21 -17 31 -9 7 6 10 17 7
25 -4 12 -8 12 -21 2 -14 -12 -14 -11 -1 10 13 21 12 25 -11 43 -14 12 -19 18
-12 14 14 -7 17 11 3 19 -5 3 -12 -1 -15 -10z"/>
<path d="M3855 5320 c3 -5 8 -10 11 -10 2 0 4 5 4 10 0 6 -5 10 -11 10 -5 0
-7 -4 -4 -10z"/>
<path d="M5818 5323 c18 -2 45 -2 60 0 15 2 0 4 -33 4 -33 0 -45 -2 -27 -4z"/>
<path d="M4040 5320 c-8 -26 -7 -41 2 -32 6 6 8 16 5 24 -3 7 -6 11 -7 8z"/>
<path d="M4523 5313 c9 -2 23 -2 30 0 6 3 -1 5 -18 5 -16 0 -22 -2 -12 -5z"/>
<path d="M4705 5314 c72 -8 155 -8 155 -1 0 4 -42 6 -92 5 -51 0 -79 -3 -63
-4z"/>
<path d="M3318 5303 c273 -2 442 -7 442 -13 0 -5 7 -6 17 -3 12 5 14 3 8 -7
-5 -9 -4 -11 4 -6 6 4 9 11 6 16 -3 5 5 11 17 13 13 2 -193 4 -457 3 l-480 -1
443 -2z"/>
<path d="M3872 5270 c-12 -19 -11 -20 8 -8 20 13 27 28 12 28 -4 0 -13 -9 -20
-20z"/>
<path d="M4051 5253 c-7 -16 -12 -30 -12 -33 2 -11 35 -4 39 8 2 6 -2 12 -8
12 -7 0 -9 8 -5 20 9 29 0 24 -14 -7z"/>
<path d="M3932 5248 c2 -6 15 -18 29 -27 l24 -15 -24 27 c-26 29 -35 34 -29
15z"/>
<path d="M6076 5225 c4 -8 8 -15 10 -15 2 0 4 7 4 15 0 8 -4 15 -10 15 -5 0
-7 -7 -4 -15z"/>
<path d="M3683 5223 c-18 -7 -16 -23 2 -23 8 0 15 7 15 15 0 8 -1 15 -2 14 -2
0 -9 -3 -15 -6z"/>
<path d="M2793 5162 c-28 -4 -30 -28 -5 -41 20 -11 42 3 42 25 0 17 -10 21
-37 16z"/>
<path d="M3980 5149 c0 -18 2 -19 15 -9 15 12 12 30 -6 30 -5 0 -9 -10 -9 -21z"/>
<path d="M3617 5143 c-4 -3 -7 -13 -7 -22 1 -14 2 -14 11 1 6 11 16 15 26 11
11 -4 14 -3 9 5 -8 13 -29 16 -39 5z"/>
<path d="M3825 5139 c4 -6 -1 -17 -11 -24 -11 -8 -14 -14 -9 -14 18 0 42 24
38 37 -3 6 -9 12 -14 12 -6 0 -7 -5 -4 -11z"/>
<path d="M6141 5132 c-1 -9 -8 -11 -22 -7 -17 6 -20 4 -16 -12 3 -10 9 -35 13
-55 3 -21 10 -35 15 -33 4 3 6 12 2 20 -3 9 0 29 7 45 7 16 10 35 7 42 -4 11
-6 11 -6 0z"/>
<path d="M3640 5103 c8 -3 24 -10 35 -15 20 -9 20 -9 1 6 -11 9 -27 16 -35 15
-14 0 -14 -1 -1 -6z"/>
<path d="M2730 5090 c0 -5 4 -10 9 -10 6 0 13 5 16 10 3 6 -1 10 -9 10 -9 0
-16 -4 -16 -10z"/>
<path d="M3595 5090 c3 -5 8 -10 11 -10 2 0 4 5 4 10 0 6 -5 10 -11 10 -5 0
-7 -4 -4 -10z"/>
<path d="M2711 5064 c0 -11 3 -14 6 -6 3 7 2 16 -1 19 -3 4 -6 -2 -5 -13z"/>
<path d="M3700 5062 c0 -6 4 -12 9 -12 5 0 12 -11 15 -25 5 -18 13 -25 29 -24
17 1 18 2 4 6 -9 2 -16 8 -13 11 2 4 -7 18 -20 32 -13 13 -24 19 -24 12z"/>
<path d="M3530 5035 c-19 -35 -9 -37 18 -4 17 21 19 29 9 29 -7 0 -20 -11 -27
-25z"/>
<path d="M6096 5035 c8 -37 14 -45 14 -19 0 10 -5 26 -10 34 -8 11 -9 7 -4
-15z"/>
<path d="M3830 5018 c0 -11 -8 -18 -20 -18 -11 0 -20 -5 -20 -10 0 -6 11 -8
28 -4 35 9 36 9 23 31 -10 17 -10 17 -11 1z"/>
<path d="M2825 5000 c-3 -5 -1 -10 4 -10 6 0 11 5 11 10 0 6 -2 10 -4 10 -3 0
-8 -4 -11 -10z"/>
<path d="M3596 4983 c-6 -14 -5 -15 5 -6 7 7 10 15 7 18 -3 3 -9 -2 -12 -12z"/>
<path d="M2790 4980 c0 -5 5 -10 10 -10 6 0 10 5 10 10 0 6 -4 10 -10 10 -5 0
-10 -4 -10 -10z"/>
<path d="M3470 4969 c0 -6 -9 -8 -20 -4 -23 7 -26 -1 -7 -19 10 -11 16 -9 30
11 10 12 13 23 7 23 -5 0 -10 -5 -10 -11z"/>
<path d="M6085 4971 c-3 -6 -14 -11 -24 -11 -10 0 -18 -7 -18 -15 0 -8 3 -15
6 -15 13 1 55 39 49 45 -3 3 -9 2 -13 -4z"/>
<path d="M3567 4963 c-4 -3 -7 -11 -7 -17 0 -6 5 -5 12 2 6 6 9 14 7 17 -3 3
-9 2 -12 -2z"/>
<path d="M2770 4956 c0 -2 7 -9 15 -16 13 -11 14 -10 9 4 -5 14 -24 23 -24 12z"/>
<path d="M2860 4918 c0 -9 -6 -19 -12 -21 -10 -4 -10 -6 0 -6 14 -1 28 26 18
36 -3 4 -6 -1 -6 -9z"/>
<path d="M2905 4901 c-36 -14 60 -22 266 -21 186 1 252 10 176 24 -46 8 -418
6 -442 -3z"/>
<path d="M3658 4903 c-10 -3 -18 -6 -18 -9 0 -7 39 -44 47 -44 4 0 2 5 -5 12
-21 21 -13 28 30 28 23 0 38 3 35 6 -8 8 -66 12 -89 7z"/>
<path d="M4453 4900 c-232 -3 -425 -8 -429 -12 -4 -5 184 -8 417 -8 317 0 428
-3 437 -12 9 -9 12 -9 12 0 0 7 -5 12 -11 12 -6 0 -9 7 -5 15 3 8 4 14 3 13
-1 -1 -192 -5 -424 -8z"/>
<path d="M3771 4896 c8 -8 108 -12 103 -4 -3 4 -28 8 -56 8 -28 0 -49 -2 -47
-4z"/>
<path d="M5188 4893 c116 -2 308 -2 425 0 116 1 21 2 -213 2 -234 0 -329 -1
-212 -2z"/>
<path d="M14761 4490 c-136 -36 -258 -116 -408 -267 -82 -82 -110 -123 -85
-123 4 0 44 37 87 82 205 209 402 310 575 295 133 -11 275 -89 385 -209 132
-146 197 -309 290 -728 55 -247 52 -237 70 -237 21 0 19 15 -21 188 -72 310
-114 448 -175 578 -90 189 -211 318 -365 388 -122 57 -225 66 -353 33z"/>
<path d="M17035 4193 c-395 -83 -678 -346 -839 -775 -20 -53 -36 -99 -36 -101
0 -3 11 -7 25 -9 13 -3 22 -2 20 3 -7 10 50 168 91 254 98 209 264 389 450
489 123 67 265 111 399 124 41 4 70 12 73 20 5 17 -93 15 -183 -5z"/>
<path d="M11905 3504 c-11 -3 -58 -12 -105 -21 -316 -59 -646 -231 -925 -483
-222 -200 -342 -259 -499 -247 -70 5 -168 33 -236 66 -19 10 -118 61 -220 113
-215 110 -289 133 -411 126 -43 -3 -82 -7 -85 -11 -4 -3 -3 -14 2 -24 16 -38
31 -133 20 -133 -6 0 -4 -5 4 -10 18 -12 -36 -13 -129 -4 -41 5 -61 11 -61 20
0 8 5 14 11 14 5 0 8 4 4 9 -3 5 2 17 11 25 14 15 14 16 -5 16 -12 0 -36 -19
-58 -46 -21 -25 -48 -58 -61 -72 -30 -36 -93 -168 -131 -275 -36 -104 -38
-121 -13 -108 13 7 493 72 525 71 4 0 7 -5 7 -11 0 -5 -8 -9 -17 -8 -10 1 -25
0 -33 -3 -8 -3 -76 -13 -150 -22 -74 -9 -187 -24 -250 -32 -63 -8 -137 -17
-165 -21 -27 -3 -79 -6 -115 -6 -40 0 -55 -3 -40 -7 19 -5 10 -8 -37 -14 -34
-4 -72 -5 -85 -3 -12 2 -16 2 -8 -1 20 -7 -170 -32 -195 -26 -14 4 -16 2 -7
-4 17 -11 -21 -47 -39 -36 -8 5 -10 3 -5 -5 5 -7 2 -20 -6 -29 -8 -9 -19 -34
-25 -54 l-11 -38 2463 0 2463 0 50 39 c88 70 125 159 126 301 1 99 -14 160
-61 250 -57 109 -126 170 -192 170 -30 0 -46 -9 -99 -60 -34 -33 -66 -60 -71
-60 -4 0 -15 27 -25 61 -82 297 -307 497 -646 575 -64 15 -422 29 -465 18z"/>
<path d="M16248 3303 c12 -2 32 -2 45 0 12 2 2 4 -23 4 -25 0 -35 -2 -22 -4z"/>
<path d="M15171 3274 c0 -11 3 -14 6 -6 3 7 2 16 -1 19 -3 4 -6 -2 -5 -13z"/>
<path d="M15152 3219 c-1 -47 2 -70 12 -78 12 -10 15 -7 20 16 6 28 1 71 -9
81 -3 3 -6 -12 -7 -34 -1 -31 -3 -27 -8 21 l-7 60 -1 -66z"/>
<path d="M16560 3240 l-35 -7 38 -3 c66 -6 70 -5 75 8 4 13 -21 14 -78 2z"/>
<path d="M16740 3236 c0 -17 14 -29 23 -20 8 8 -3 34 -14 34 -5 0 -9 -6 -9
-14z"/>
<path d="M15230 3230 c0 -5 12 -10 28 -9 24 0 25 1 7 9 -27 12 -35 12 -35 0z"/>
<path d="M15340 3120 c0 -7 225 -10 654 -10 426 0 657 3 661 10 4 7 -217 10
-654 10 -434 0 -661 -3 -661 -10z"/>
<path d="M16692 3105 c0 -16 2 -22 5 -12 2 9 2 23 0 30 -3 6 -5 -1 -5 -18z"/>
<path d="M15375 3090 c11 -5 299 -9 640 -9 464 -1 624 -4 633 -13 15 -15 24
-7 12 12 -8 13 -99 15 -657 17 -377 1 -640 -2 -628 -7z"/>
<path d="M15180 3069 c0 -5 5 -7 10 -4 6 3 10 8 10 11 0 2 -4 4 -10 4 -5 0
-10 -5 -10 -11z"/>
<path d="M9386 3034 c-18 -26 -18 -26 3 -15 11 7 21 18 21 26 0 20 -2 19 -24
-11z"/>
<path d="M15250 3036 c0 -14 5 -28 10 -31 6 -3 10 -14 10 -25 0 -21 29 -35 44
-20 8 8 4 12 -12 16 -12 4 -22 11 -22 16 0 6 10 8 23 4 12 -3 38 -6 57 -7 19
0 29 -3 23 -6 -26 -10 -12 -23 25 -23 29 0 34 3 22 11 -12 8 -10 10 10 6 14
-3 67 -11 118 -18 50 -7 92 -17 92 -22 0 -5 9 -7 20 -4 10 3 57 0 102 -6 74
-10 79 -12 48 -19 -25 -5 -19 -6 20 -2 30 2 82 -1 115 -6 53 -9 204 -32 290
-45 17 -2 56 -7 88 -11 32 -4 54 -10 48 -14 -6 -3 15 -6 46 -6 32 0 88 -4 126
-9 54 -6 67 -5 67 6 1 8 9 62 19 122 9 59 15 109 13 112 -3 3 -320 5 -704 5
l-698 0 0 -24z"/>
<path d="M9400 3001 c0 -6 5 -13 10 -16 6 -3 10 1 10 9 0 9 -4 16 -10 16 -5 0
-10 -4 -10 -9z"/>
<path d="M9347 2979 c8 -8 16 -8 30 0 16 9 14 10 -11 11 -22 0 -27 -3 -19 -11z"/>
<path d="M15305 2939 c-2 -8 -3 -23 -1 -34 3 -11 5 -29 6 -40 2 -18 3 -17 8 3
8 26 25 26 27 0 1 -9 -3 -14 -8 -11 -5 3 -7 -3 -5 -12 1 -10 9 -20 16 -23 8
-2 12 9 12 37 0 39 1 41 33 42 31 2 31 2 4 6 -16 3 -31 11 -34 19 -3 7 -9 11
-14 8 -6 -3 -16 0 -24 6 -12 10 -16 9 -20 -1z"/>
<path d="M15530 2940 c8 -5 29 -9 45 -9 29 1 29 1 5 9 -14 4 -34 8 -45 9 -16
1 -17 -1 -5 -9z"/>
<path d="M15498 2923 c7 -3 16 -2 19 1 4 3 -2 6 -13 5 -11 0 -14 -3 -6 -6z"/>
<path d="M15430 2909 c0 -11 85 -15 185 -8 50 3 70 6 45 7 -149 7 -230 7 -230
1z"/>
<path d="M15728 2913 c12 -2 30 -2 40 0 9 3 -1 5 -23 4 -22 0 -30 -2 -17 -4z"/>
<path d="M16001 2865 c3 -2 21 -5 42 -7 20 -1 37 -5 37 -9 0 -4 19 -10 43 -13
23 -3 62 -8 86 -12 29 -4 41 -3 37 4 -3 6 0 13 6 16 7 3 2 3 -12 0 -14 -3 -54
2 -90 10 -60 15 -159 22 -149 11z"/>
<path d="M16275 2830 c-20 -8 -20 -9 1 -9 11 -1 24 -4 28 -8 12 -13 78 -31 92
-26 20 8 17 23 -5 23 -10 0 -32 7 -47 15 -32 17 -40 17 -69 5z"/>
<path d="M15311 2760 c3 -66 15 -83 27 -39 9 36 -2 89 -19 89 -6 0 -9 -22 -8
-50z"/>
<path d="M16320 2745 c0 -9 6 -12 15 -9 8 4 15 10 15 15 0 5 -7 9 -15 9 -8 0
-15 -7 -15 -15z"/>
<path d="M16460 2752 c0 -4 9 -13 20 -20 11 -7 20 -9 20 -4 0 4 -9 13 -20 20
-11 7 -20 9 -20 4z"/>
<path d="M16510 2698 c0 -9 5 -20 10 -23 13 -8 13 5 0 25 -8 13 -10 13 -10 -2z"/>
<path d="M16320 2692 c0 -4 19 -26 42 -47 26 -24 33 -28 18 -11 -41 48 -60 66
-60 58z"/>
<path d="M16500 2661 c0 -7 -5 -9 -12 -5 -7 5 -8 3 -3 -5 5 -9 10 -10 18 -2 6
6 8 14 4 18 -4 3 -7 1 -7 -6z"/>
<path d="M16526 2613 c-3 -10 -9 -24 -12 -30 -3 -8 1 -13 10 -13 9 0 16 4 16
9 0 5 8 8 18 6 9 -1 11 0 4 2 -8 3 -12 13 -9 24 6 24 -18 26 -27 2z"/>
<path d="M8508 2393 c7 -3 16 -2 19 1 4 3 -2 6 -13 5 -11 0 -14 -3 -6 -6z"/>
<path d="M16492 2289 c0 -16 4 -29 9 -27 6 2 10 7 10 11 -1 4 -1 16 -1 27 0
33 -17 23 -18 -11z"/>
</g>
</svg>
